<svg xmlns="http://www.w3.org/2000/svg" viewBox="0 0 800 600">
	<path fill="#001C37" d="M644.4,159.2L644.4,159.2c-4.3-4.3-4.3-11.2,0-15.5l9.9-9.9c1.1-1.1,0.4-2.9-1.1-3.4
		c-9.7-2.7-20.7-0.2-28.3,7.4c-8.3,8.3-10.3,20.2-6.7,30.3c0.2,0.7,0.2,1.6-0.4,2.2l-61.8,61.8c-0.7,0.7-1.3,0.7-2.2,0.4
		c-10.3-3.8-22.2-1.6-30.3,6.7c-7.9,7.9-10.1,18.6-7.4,28.5c0.4,1.6,2.5,2,3.6,0.9l9.9-9.9c4.3-4.3,11.2-4.3,15.5,0l0,0
		c4.3,4.3,4.3,11.2,0,15.5l-9.9,9.9c-1.1,1.1-0.7,3.1,0.9,3.6c9.7,2.7,20.7,0.4,28.3-7.4c8.3-8.3,10.3-20.2,6.7-30.3
		c-0.2-0.7-0.2-1.6,0.4-2.2l62-62c0.7-0.7,1.3-0.7,2.2-0.4c10.3,3.8,22.2,1.6,30.3-6.7c7.6-7.6,10.1-18.6,7.4-28.3
		c-0.4-1.6-2.5-2-3.6-0.9l-10.1,9.7C655.4,163.7,648.7,163.7,644.4,159.2z M571,204.5l19.1-19.1c1.1-1.1,1.1-3.1,0-4.3l-46.7-46.7
		c-6.1-6.1-16.8-6.7-23.4-0.7c-6.7,6.3-7,17.1-0.4,23.6l47.2,47.2C567.8,205.6,569.9,205.6,571,204.5z M666.2,267.2
		c-0.4-0.4-0.9-0.9-1.3-1.1l-8.3-4.3c-0.2-0.2-0.7-0.4-0.9-0.7l-40.4-40.4c-1.1-1.1-3.1-1.1-4.3,0l-4.9,4.9c-1.1,1.1-1.1,3.1,0,4.3
		l40.4,40.4c0.2,0.2,0.4,0.7,0.7,0.9l4.3,8.3c0.2,0.4,0.7,0.9,1.1,1.3l11,7.4c1.3,0.9,3.4,0.7,4.5-0.4l4.9-4.9
		c1.1-1.1,1.3-3.1,0.4-4.5L666.2,267.2z"/>
</svg>
