<svg xmlns="http://www.w3.org/2000/svg" viewBox="0 0 800 600">
	<path fill="#001C37" d="M254.9,213.8l0.6-6.3l-4,2.2l-0.5-6.3l-6.5,4.4l0.7-5.6l46.8-45.9c0.6,0,1.2,0,1.7,0
		c0.2,0.3,0.3,0.7,0.5,0.9c0.3,0.4,0.8,0.7,1.2,1c-0.3,1.5-0.6,3.3-0.8,5.2L254.9,213.8z M294.9,175.3c-0.1-7.2,0.4-13.6,1.4-18.1
		c-0.4-0.3-0.8-0.6-1.2-1c-0.2-0.3-0.3-0.6-0.5-0.9c-4.6,0-10.9-0.8-17.9-2.5c-13.4-3.2-23.7-8-23-10.9c0.7-2.9,12.1-2.6,25.4,0.6
		c6.8,1.6,12.6,3.6,16.8,5.6c0,0,0,0,0,0c1.6-1.3,3.5-1.5,5.3-0.9c2.9-3.6,7.2-7.9,12.6-12.2c10.7-8.6,20.9-13.8,22.7-11.5
		c1.8,2.2-5.4,11.1-16.1,19.7c-5.7,4.6-11.1,8-15.3,10c-0.2,1.4-0.8,2.6-1.9,3.6c1.1,4.5,1.9,10.9,2.1,18.2c0.3,13.8-1.9,24.9-4.8,25
		C297.7,200.1,295.1,189,294.9,175.3z M301.4,151.2c-0.8-1-2.3-1.2-3.2-0.4c-1,0.8-1.1,2.2-0.4,3.2c0.8,1,2.3,1.1,3.2,0.4
		C302.1,153.6,302.2,152.1,301.4,151.2z M185,159.6l-5.8,3.6l-1-7.6l-5.3,5.7l-3.2-4.4l18.4-50.5c0.8-0.3,1.4-0.5,2.1-0.9
		c0.4,0.3,0.7,0.7,1.1,0.9c0.6,0.3,1.3,0.4,2,0.5c0.5,2.1,1.2,4.3,2.1,6.8L185,159.6z M202.7,128.2c-4.4-8.8-7.4-16.9-8.9-23.1
		c-0.7-0.1-1.3-0.2-2-0.5c-0.5-0.2-0.8-0.6-1.1-0.9c-5.7,2.7-13.9,5.4-23.4,7.4c-18.3,4-33.8,4-34.7,0.1
		c-0.9-3.9,13.3-10.2,31.7-14.2c9.3-2,17.7-2.9,23.9-2.9c0,0,0,0,0,0c1.2-2.5,3.5-3.9,6-4.2c1.5-6.1,4.3-13.9,8.4-22.4
		c8.1-16.9,17.6-29.2,21.2-27.4c3.6,1.7-0.1,16.8-8.3,33.7c-4.3,8.9-8.9,16.4-12.9,21.3c0.6,1.8,0.5,3.7-0.3,5.6
		c4,4.9,8.7,12.3,13.2,21.1c8.4,16.8,12.3,31.8,8.7,33.6C220.8,157.1,211.1,144.9,202.7,128.2z M196.6,94.7c-1.6-0.8-3.5-0.1-4.2,1.5
		c-0.7,1.6-0.1,3.4,1.5,4.2c1.6,0.8,3.4,0.1,4.2-1.5C198.8,97.3,198.1,95.4,196.6,94.7z M96.5,152.7c-0.5,0.1-1,0.1-1.5,0.1
		c-0.4-0.1-0.7-0.3-1-0.4c-0.4,0.4-0.8,0.6-1.3,1L86.5,250h18.8l-5.9-92.9C98.2,155.5,97.3,154.1,96.5,152.7z M257.7,221l-3.7-5
		l-1.5,4.3l-4.6-4.4l-1.9,7.6l-3.2-4.8l-2,31.2h18.8L257.7,221z M179,175.3l-3.1-7l-3.5,7L168,172l-5,78h25.6l-5.1-79.8L179,175.3z
		 M101.6,146.4c0.2-1.5-0.2-2.9-1-4c1.8-4.3,3.5-10.5,4.7-17.7c2.2-13.6,1.7-24.9-1.1-25.4c-2.9-0.5-7,10.1-9.2,23.7
		c-1.1,6.8-1.5,12.9-1.3,17.5c-1.7,0.8-3,2.2-3.4,4.2c0,0,0,0,0,0c-4.4,1.3-10.1,3.7-16.2,7c-12.1,6.6-20.8,14-19.3,16.5
		c1.4,2.5,12.3-0.7,24.4-7.3c6.3-3.4,11.5-7,15-10.1c0.3,0.1,0.6,0.3,1,0.4c0.5,0.1,1,0,1.5-0.1c2.3,4,6.1,9.1,11.1,14.4
		c9.3,10.1,18.7,16.6,20.8,14.6c2.1-2-3.7-11.8-13.1-21.8C110.3,153.2,105.4,149,101.6,146.4z M98.2,146.1c-0.2,1.2-1.4,2.1-2.6,1.9
		c-1.2-0.2-2.1-1.4-1.9-2.6c0.2-1.2,1.4-2.1,2.6-1.9C97.5,143.7,98.4,144.8,98.2,146.1z"/>
	<path fill="#001C37" d="M200.9,451.9c-12.3,12.3-32.4,12.3-44.7,0c-12.3-12.3-12.3-32.4,0-44.7 M212.9,455.4c2.3-2.3,2.3-6.1,0-8.5
		l-51.8-51.8c-2.3-2.3-6.1-2.3-8.5,0l0,0c-2.3,2.3-2.3,6.1,0,8.5l51.8,51.8C206.8,457.8,210.6,457.8,212.9,455.4L212.9,455.4z
		 M204.9,358.5c12.3-12.3,32.4-12.3,44.7,0c12.3,12.3,12.3,32.4,0,44.7 M192.9,355c-2.3,2.3-2.3,6.1,0,8.5l51.8,51.8
		c2.3,2.3,6.1,2.3,8.5,0l0,0c2.3-2.3,2.3-6.1,0-8.5L201.4,355C199,352.6,195.3,352.6,192.9,355L192.9,355z M189,387.6
		c2.3-2.3,6.1-2.3,8.5,0l0,0c2.3,2.3,2.3,6.1,0,8.5L183,410.5l-8.5-8.5L189,387.6z M212.1,410.7c2.3-2.3,6.1-2.3,8.5,0l0,0
		c2.3,2.3,2.3,6.1,0,8.5l-14.4,14.4l-8.5-8.5L212.1,410.7z M263.1,336.6c2.3-2.3,6.1-2.3,8.5,0l0,0c2.3,2.3,2.3,6.1,0,8.5l-21,21
		l-8.5-8.5L263.1,336.6z M142.8,473.8c-2.3,2.3-6.1,2.3-8.5,0l0,0c-2.3-2.3-2.3-6.1,0-8.5l21-21l8.5,8.5L142.8,473.8z"/>
</svg>
