<svg xmlns="http://www.w3.org/2000/svg" viewBox="0 0 800 600">
<path fill="#001C37" d="M522.5,409.4l-2-0.1l0.2-3.4l0.3-0.3c0.5-0.4,1-0.8,1.4-1.2l0.8-0.7l0.6,0.2c0.2,0.1,0.4,0.2,0.5,0.2
	c0.2,0.1,0.5,0.2,0.7,0.2c0.5,0.1,1,0,1.5-0.1l1-0.1l0.3,0.6c0.5,0.8,1,1.7,1.5,2.5l-1.7,1.1c-0.4-0.7-0.9-1.4-1.2-2
	c-0.5,0.1-1.1,0.1-1.7,0c-0.4-0.1-0.8-0.2-1.1-0.4c-0.3,0.3-0.7,0.6-1,0.9L522.5,409.4z M514.7,530.5l-2-0.1l-0.4,6.1l2,0.1
	L514.7,530.5z M515.3,521.4l-2-0.1l-0.4,6.1l2,0.1L515.3,521.4z M515.9,512.3l-2-0.1l-0.4,6.1l2,0.1L515.9,512.3z M516.5,503.2
	l-2-0.1l-0.4,6.1l2,0.1L516.5,503.2z M517.1,494.1l-2-0.1l-0.4,6.1l2,0.1L517.1,494.1z M517.6,485.1l-2-0.1l-0.4,6.1l2,0.1
	L517.6,485.1z M518.2,476l-2-0.1l-0.4,6.1l2,0.1L518.2,476z M518.8,466.9l-2-0.1l-0.4,6.1l2,0.1L518.8,466.9z M519.4,457.8l-2-0.1
	l-0.4,6.1l2,0.1L519.4,457.8z M520,448.7l-2-0.1l-0.4,6.1l2,0.1L520,448.7z M520.5,439.6l-2-0.1l-0.4,6.1l2,0.1L520.5,439.6z
	 M521.1,430.6l-2-0.1l-0.4,6.1l2,0.1L521.1,430.6z M521.7,421.5l-2-0.1l-0.4,6.1l2,0.1L521.7,421.5z M522.3,412.4l-2-0.1l-0.4,6.1
	l2,0.1L522.3,412.4z M516,541.5H514l0.1-1.9l-2-0.1l-0.3,4.1h4.1V541.5z M533.5,541.5h-5.8v2h5.8V541.5z M524.7,541.5h-5.8v2h5.8
	V541.5z M540.2,539.4l-2,0.1l0.1,1.9h-1.9v2h4.1L540.2,539.4z M540,536.3l-0.4-6.2l-2,0.1l0.4,6.2L540,536.3z M539.5,527.1l-0.4-6.2
	l-2,0.1l0.4,6.2L539.5,527.1z M538.9,517.9l-0.4-6.2l-2,0.1l0.4,6.2L538.9,517.9z M538.3,508.6l-0.4-6.2l-2,0.1l0.4,6.2L538.3,508.6
	z M537.7,499.4l-0.4-6.2l-2,0.1l0.4,6.2L537.7,499.4z M537.1,490.1l-0.4-6.2l-2,0.1l0.4,6.2L537.1,490.1z M536.5,480.9l-0.4-6.2
	l-2,0.1l0.4,6.2L536.5,480.9z M535.9,471.6l-0.4-6.2l-2,0.1l0.4,6.2L535.9,471.6z M535.3,462.4l-0.4-6.2l-2,0.1l0.4,6.2L535.3,462.4
	z M534.7,453.1l-0.4-6.2l-2,0.1l0.4,6.2L534.7,453.1z M534.1,443.9l-0.4-6.2l-2,0.1l0.4,6.2L534.1,443.9z M533.5,434.6l-0.4-6.2
	l-2,0.1l0.4,6.2L533.5,434.6z M533,425.4l-0.4-6.2l-2,0.1l0.4,6.2L533,425.4z M532.4,416.2l-0.3-5.1l-0.2-0.2
	c-0.3-0.4-0.5-0.8-0.8-1.1l-1.6,1.1c0.2,0.3,0.4,0.6,0.6,0.9l0.3,4.5L532.4,416.2z M537.2,397.2c-0.7-0.5-1.3-1-2-1.4
	c0.1-1.9-0.3-3.7-1.3-5.2c0.3-0.8,0.6-1.5,0.9-2.3l-1.9-0.7c-0.4,1-0.7,1.9-1.1,2.8l-0.2,0.5l0.3,0.5c1,1.4,1.4,3.1,1.2,4.9
	l-0.1,0.6l0.5,0.3c0.8,0.5,1.6,1.1,2.4,1.7L537.2,397.2z M537.5,379.6l-1.9-0.5c-0.5,2-1.1,3.9-1.6,5.6l1.9,0.6
	C536.4,383.6,537,381.7,537.5,379.6z M524.2,376.2l-2-0.2c-0.2,2.1-0.3,4.1-0.3,6l2,0C523.9,380.2,524,378.2,524.2,376.2z
	 M539.5,370.9l-2-0.4c-0.4,2-0.8,3.9-1.2,5.8l1.9,0.5C538.7,374.9,539.1,372.9,539.5,370.9z M525.2,367.4l-2-0.3
	c-0.3,2-0.5,4-0.7,5.9l2,0.2C524.6,371.4,524.9,369.4,525.2,367.4z M540.4,366c0.2-1.3,0.4-2.6,0.6-3.9l-2-0.3
	c-0.2,1.3-0.4,2.5-0.6,3.8c-0.1,0.7-0.2,1.3-0.3,2l2,0.3C540.1,367.3,540.3,366.6,540.4,366z M525.7,363.6c0.3-1.6,0.6-3.3,0.9-4.8
	l-2-0.4c-0.3,1.6-0.6,3.2-0.9,4.9l-0.2,1l2,0.3L525.7,363.6z M542,353.2l-2-0.2c-0.2,1.9-0.4,3.9-0.6,5.9l2,0.2
	C541.6,357.1,541.8,355.1,542,353.2z M528.5,350.1l-1.9-0.5c-0.5,1.9-0.9,3.8-1.4,5.8l2,0.4C527.6,353.9,528.1,352,528.5,350.1z
	 M542.3,344.3l-2,0.1c0,1.8-0.1,3.8-0.2,5.8l2,0.1C542.3,348.2,542.3,346.2,542.3,344.3z M531.1,341.7l-1.9-0.7
	c-0.6,1.8-1.2,3.7-1.8,5.7l1.9,0.5C529.9,345.3,530.5,343.4,531.1,341.7z M542.3,341.3c-0.1-2.3-0.3-4.3-0.6-6l-2,0.4
	c0.3,1.6,0.5,3.5,0.6,5.8L542.3,341.3z M534.6,333.8l-1.7-1.1c-0.9,1.4-1.8,3.3-2.7,5.5l1.9,0.8C533,336.9,533.8,335.1,534.6,333.8z
	 M540.9,332.2c-0.7-1.9-1.7-3-2.9-3.2c-1-0.2-2,0.2-3,1.2l1.4,1.5c0.5-0.5,0.9-0.7,1.3-0.7c0.5,0.1,1,0.8,1.4,1.9L540.9,332.2z
	 M523.4,389l0.6-0.3l0-0.7c0-0.9-0.1-1.9-0.1-3l-2,0c0,0.8,0,1.6,0.1,2.4c-0.8,0.4-1.5,0.9-2.1,1.6l1.4,1.4
	C521.8,389.8,522.5,389.3,523.4,389z M518.5,395l0.5-0.1l0.2-0.7v-0.1c0.1-0.8,0.4-1.6,0.9-2.3l-1.7-1.1c-0.5,0.8-0.8,1.6-1.1,2.5
	c-0.7,0.2-1.5,0.5-2.3,0.7l0.6,1.9C516.7,395.6,517.6,395.3,518.5,395z M470.9,427.4c-1-0.1-1.8-0.3-2-0.7c-0.1-0.1-0.1-0.2-0.1-0.4
	c0-0.3,0.1-0.8,0.4-1.3l-1.8-0.9c-0.4,0.8-0.6,1.5-0.6,2.2c0,0.5,0.1,1,0.3,1.4c0.6,1,1.8,1.6,3.6,1.7L470.9,427.4z M479.9,427.8
	l-0.6-1.9c-2.1,0.6-4,1.1-5.6,1.3l0.3,2C475.7,428.9,477.6,428.5,479.9,427.8z M488.3,424.8l-0.8-1.8c-1.9,0.8-3.8,1.5-5.5,2.1
	l0.6,1.9C484.5,426.3,486.4,425.6,488.3,424.8z M496.5,421.1l-0.9-1.8c-1.8,0.9-3.6,1.7-5.3,2.5l0.8,1.8
	C492.8,422.8,494.7,422,496.5,421.1z M474.9,418.7l-1.3-1.5c-1.8,1.5-3.2,3-4.3,4.3l1.5,1.3C471.8,421.5,473.2,420.2,474.9,418.7z
	 M502.9,417.8c0.5-0.3,1-0.6,1.5-0.8l-1-1.7c-0.5,0.3-1,0.5-1.5,0.8c-1.2,0.7-2.5,1.3-3.7,1.9l0.9,1.8
	C500.4,419.2,501.6,418.5,502.9,417.8z M481.8,413.3l-1.1-1.6c-1.7,1.2-3.3,2.4-4.8,3.6l1.2,1.6
	C478.6,415.7,480.1,414.5,481.8,413.3z M512.1,412.4l-1.1-1.7c-1.6,1-3.3,2.1-5,3.1l1,1.7C508.7,414.5,510.4,413.5,512.1,412.4z
	 M489.2,408.5l-1-1.7c-1.7,1.1-3.4,2.1-5,3.2l1.1,1.7C485.8,410.6,487.5,409.6,489.2,408.5z M519.5,407.3l-1.2-1.6
	c-1.5,1.1-3.1,2.3-4.8,3.4l1.1,1.7C516.3,409.6,517.9,408.5,519.5,407.3z M495.8,404.8c0.4-0.2,0.7-0.4,1.1-0.6l-0.9-1.8
	c-0.4,0.2-0.7,0.4-1.1,0.6c-1.4,0.8-2.8,1.5-4.1,2.3l1,1.7C493.1,406.3,494.4,405.5,495.8,404.8z M504.8,400.3l-0.8-1.8
	c-1.7,0.8-3.5,1.7-5.4,2.6l0.9,1.8C501.3,401.9,503.1,401.1,504.8,400.3z M512.9,396.9l-0.7-1.9c-1.8,0.7-3.6,1.4-5.5,2.2l0.8,1.8
	C509.4,398.3,511.2,397.5,512.9,396.9z M529.4,405.2c-0.5-0.9-1.1-1.7-1.5-2.5l-0.3-0.6l-1,0.1c-0.5,0.1-1,0.1-1.5,0.1
	c-0.2,0-0.4-0.1-0.7-0.2c-0.2-0.1-0.4-0.2-0.6-0.2l-0.6-0.2l-0.4,0.4c-0.7,0.6-1.5,1.3-2.3,1.9l1.3,1.6c0.6-0.5,1.3-1,1.8-1.5
	c0.3,0.1,0.6,0.3,1.1,0.3c0.6,0.1,1.2,0.1,1.7,0c0.4,0.7,0.8,1.4,1.2,2L529.4,405.2z M572.5,444.8c0.6-0.6,0.9-1.4,0.9-2.5
	c0-0.4,0-0.8-0.1-1.3l-2,0.4c0.1,0.3,0.1,0.7,0.1,0.9c0,0.4-0.1,0.8-0.3,1c-0.2,0.2-0.4,0.2-0.8,0.2c0,0,0,0,0,0c-0.3,0-0.6,0-1-0.1
	l-0.5,1.9c0.5,0.1,1,0.2,1.5,0.2C571.2,445.7,572,445.4,572.5,444.8z M566.8,442.5c-1.4-0.7-3.1-1.7-5-3l-1.1,1.6
	c1.9,1.4,3.7,2.4,5.2,3.2L566.8,442.5z M559.4,437.7c-1.5-1.1-3-2.4-4.6-3.7l-1.3,1.5c1.6,1.4,3.2,2.7,4.7,3.8L559.4,437.7z
	 M572.4,438c-0.6-1.6-1.6-3.4-2.8-5.4l-1.7,1c1.2,1.9,2.1,3.7,2.7,5.2L572.4,438z M552.6,432c-1.4-1.3-2.9-2.7-4.3-4.1l-1.4,1.4
	c1.5,1.4,2.9,2.8,4.4,4.1L552.6,432z M568,430c-1-1.6-2.2-3.2-3.5-4.9l-1.6,1.2c1.2,1.7,2.4,3.3,3.4,4.8L568,430z M546.2,425.9
	c-1-1-1.9-2-2.9-3c-0.4-0.4-0.8-0.8-1.2-1.3l-1.5,1.3c0.4,0.4,0.8,0.9,1.2,1.3c1,1.1,2,2.1,2.9,3.1L546.2,425.9z M562.7,422.7
	c-1.2-1.5-2.5-3.1-3.8-4.7l-1.5,1.3c1.3,1.5,2.6,3.1,3.8,4.6L562.7,422.7z M540.2,419.3c-1.3-1.5-2.6-3-3.8-4.5l-1.6,1.3
	c1.2,1.5,2.5,3.1,3.9,4.6L540.2,419.3z M556.9,415.7c-0.9-1-1.8-2-2.8-3c-0.4-0.5-0.9-0.9-1.3-1.4l-1.4,1.4c0.4,0.4,0.9,0.9,1.3,1.4
	c0.9,1,1.8,2,2.7,3L556.9,415.7z M534.5,412.5c-1.3-1.6-2.4-3.2-3.5-4.8l-1.7,1.1c1.1,1.6,2.3,3.2,3.5,4.9L534.5,412.5z
	 M550.7,409.2c-1.4-1.5-2.9-2.9-4.3-4.2l-1.4,1.5c1.4,1.3,2.8,2.7,4.3,4.1L550.7,409.2z M544.2,403c-1.6-1.4-3.1-2.7-4.6-3.9
	l-1.2,1.6c1.5,1.2,3,2.5,4.5,3.8L544.2,403z M525.8,397.5c-1.1-0.2-1.9-1.1-1.9-2.2c0-0.1,0-0.2,0-0.4c0.1-0.4,0.2-0.7,0.5-1
	l-1.5-1.3c-0.5,0.6-0.8,1.3-0.9,2c0,0.2-0.1,0.5-0.1,0.7c0,2.1,1.5,3.8,3.6,4.2l0.2-1l-0.2,1L525.8,397.5z M530.4,396
	c0-0.2,0.1-0.5,0.1-0.7c0-2.1-1.5-3.8-3.5-4.2l0,0l-0.3,2c1.1,0.2,1.9,1.1,1.9,2.2c0,0.1,0,0.2,0,0.4c-0.1,0.4-0.2,0.7-0.5,1
	l1.6,1.3C530,397.4,530.3,396.7,530.4,396z M600.7,443.1c0.2-0.2,0.4-0.3,0.6-0.5c0.2,0.1,0.4,0.2,0.7,0.2c0.4,0.1,0.8,0,1.2,0
	c0.4,0.6,0.8,1.3,1.3,2l1.7-1.1c-0.6-0.9-1.1-1.7-1.5-2.5l-0.3-0.6l-0.9,0.1c-0.4,0-0.7,0.1-1,0c-0.1,0-0.3-0.1-0.4-0.2
	c-0.1-0.1-0.3-0.1-0.4-0.2l-0.6-0.2l-0.7,0.6c-0.3,0.3-0.7,0.6-1.1,0.9l-0.3,0.3l-0.2,3.4l2,0.1L600.7,443.1z M595.1,530.5l-2-0.1
	l-0.4,6.1l2,0.1L595.1,530.5z M595.7,521.4l-2-0.1l-0.4,6.1l2,0.1L595.7,521.4z M596.2,512.3l-2-0.1l-0.4,6.1l2,0.1L596.2,512.3z
	 M596.8,503.2l-2-0.1l-0.4,6.1l2,0.1L596.8,503.2z M597.4,494.1l-2-0.1L595,500l2,0.1L597.4,494.1z M598,485l-2-0.1l-0.4,6.1l2,0.1
	L598,485z M598.6,475.9l-2-0.1l-0.4,6.1l2,0.1L598.6,475.9z M599.1,466.8l-2-0.1l-0.4,6.1l2,0.1L599.1,466.8z M599.7,457.7l-2-0.1
	l-0.4,6.1l2,0.1L599.7,457.7z M600.3,448.7l-2-0.1l-0.4,6.1l2,0.1L600.3,448.7z M596.3,541.5h-1.9l0.1-1.9l-2-0.1l-0.3,4.1h4.1
	V541.5z M606.4,541.5h-6.7v2h6.7V541.5z M613.5,539.4l-2,0.1l0.1,1.9h-1.9v2h4.1L613.5,539.4z M613.3,536.3l-0.4-6.2l-2,0.1l0.4,6.2
	L613.3,536.3z M612.7,527.1l-0.4-6.2l-2,0.1l0.4,6.2L612.7,527.1z M612.2,517.8l-0.4-6.2l-2,0.1l0.4,6.2L612.2,517.8z M611.6,508.6
	l-0.4-6.2l-2,0.1l0.4,6.2L611.6,508.6z M611,499.3l-0.4-6.2l-2,0.1l0.4,6.2L611,499.3z M610.4,490.1l-0.4-6.2l-2,0.1l0.4,6.2
	L610.4,490.1z M609.8,480.8l-0.4-6.2l-2,0.1l0.4,6.2L609.8,480.8z M609.2,471.6l-0.4-6.2l-2,0.1l0.4,6.2L609.2,471.6z M608.6,462.3
	l-0.4-6.2l-2,0.1l0.4,6.2L608.6,462.3z M608,453.1l-0.4-6.2l-2,0.1l0.4,6.2L608,453.1z M611.9,436.2c-0.7-0.5-1.4-1-2-1.5
	c0-1.3-0.3-2.6-0.9-3.7c0.3-0.7,0.6-1.5,0.9-2.4L608,428c-0.3,1-0.7,1.9-1,2.7l-0.2,0.5l0.3,0.5c0.7,1,1,2.2,0.8,3.4l-0.1,0.6
	l0.5,0.3c0.8,0.5,1.6,1.1,2.4,1.7L611.9,436.2z M612.4,419.7l-2-0.4c-0.5,2.1-1,4-1.5,5.8l1.9,0.6
	C611.4,423.8,611.9,421.8,612.4,419.7z M602.1,417.1l-2-0.2c-0.2,2.1-0.4,4.2-0.5,6.1l2,0.1C601.7,421.2,601.9,419.2,602.1,417.1z
	 M613.7,413c0.1-0.8,0.3-1.6,0.4-2.4l-2-0.3c-0.1,0.8-0.2,1.5-0.4,2.3c-0.2,1.2-0.4,2.5-0.7,3.6l2,0.4
	C613.3,415.5,613.5,414.3,613.7,413z M602.9,411.3c0.2-1,0.4-2.1,0.5-3.1l-2-0.4c-0.2,1-0.4,2.1-0.6,3.1c-0.2,1-0.3,2-0.4,2.9l2,0.3
	C602.6,413.2,602.8,412.2,602.9,411.3z M615,401.5l-2-0.1c-0.1,1.9-0.3,3.9-0.5,6l2,0.2C614.7,405.5,614.9,403.4,615,401.5z
	 M605.6,399.4l-1.9-0.5c-0.5,1.9-1,3.9-1.5,6l2,0.4C604.5,403.2,605,401.2,605.6,399.4z M615.1,397.1c0-1.8-0.1-3.5-0.2-4.9l-2,0.2
	c0.1,1.4,0.2,2.9,0.2,4.7c0,0.4,0,0.8,0,1.3l2,0C615.1,398,615.1,397.5,615.1,397.1z M608.6,391l-1.8-0.9c-0.8,1.6-1.6,3.5-2.3,5.8
	l1.9,0.6C607.2,394.3,607.9,392.4,608.6,391z M614.3,389c-0.6-2.1-1.5-3.2-2.7-3.4c-1-0.2-2.1,0.4-3.1,1.7l1.6,1.2
	c0.6-0.7,1-1,1.2-1c0,0,0,0,0,0c0.2,0,0.6,0.5,1,2L614.3,389z M597.4,434.5l0.4-0.1l0.3-0.7l0-0.2c0.3-1.5,1.3-2.8,2.9-3.5l0.6-0.3
	l0-0.7c0-0.9-0.1-1.9-0.1-2.9l-2,0c0,0.8,0,1.6,0,2.4c-1.7,0.9-2.9,2.4-3.3,4.2c-0.7,0.2-1.5,0.5-2.3,0.8l0.7,1.9
	C595.6,435.1,596.6,434.8,597.4,434.5z M563.4,459.8l-0.1-2c-0.1,0-0.3,0-0.4,0c-1.1,0-1.5-0.2-1.6-0.4c0,0,0-0.1,0-0.2
	c0-0.2,0.1-0.6,0.6-1.5l-1.7-1.1c-0.7,1-1,1.8-1,2.6c0,0.4,0.1,0.8,0.3,1.1c0.5,0.9,1.6,1.4,3.3,1.4
	C563,459.8,563.2,459.8,563.4,459.8z M572.5,457.5l-0.7-1.9c-2.1,0.8-4,1.4-5.7,1.7l0.4,2C568.3,458.9,570.3,458.3,572.5,457.5z
	 M581,453.9l-0.9-1.8c-1.9,0.9-3.7,1.7-5.5,2.5l0.8,1.8C577.2,455.6,579.1,454.8,581,453.9z M568.2,449.7l-1.2-1.6
	c-1.9,1.4-3.5,2.8-4.7,4.1l1.4,1.4C564.9,452.4,566.4,451.1,568.2,449.7z M586,451.2c1.1-0.6,2.1-1.1,3.1-1.7l-1-1.7
	c-1,0.6-2,1.1-3,1.7c-0.8,0.4-1.5,0.8-2.3,1.2l0.9,1.8C584.5,452.1,585.3,451.7,586,451.2z M596.9,444.5l-1.2-1.6
	c-1.6,1.1-3.2,2.2-5,3.3l1.1,1.7C593.6,446.8,595.3,445.7,596.9,444.5z M575.7,444.6l-1-1.7c-1.8,1.1-3.6,2.2-5.2,3.4l1.1,1.6
	C572.2,446.8,573.9,445.7,575.7,444.6z M580.9,441.7c0.9-0.5,1.8-1,2.8-1.4l-0.9-1.8c-0.9,0.5-1.9,1-2.8,1.5c-0.9,0.5-1.8,1-2.6,1.5
	l1,1.7C579.1,442.6,580,442.2,580.9,441.7z M591.8,436.5l-0.7-1.9c-1.8,0.7-3.7,1.6-5.6,2.5l0.9,1.8
	C588.2,438,590.1,437.2,591.8,436.5z M606,442.3c-0.6-0.9-1.1-1.7-1.5-2.5l-0.3-0.6l-0.9,0.1c-0.4,0-0.7,0.1-1,0
	c-0.1,0-0.2-0.1-0.4-0.2c-0.1-0.1-0.3-0.1-0.4-0.2l-0.6-0.2l-0.4,0.4c-0.7,0.6-1.5,1.2-2.3,1.9l1.2,1.6c0.6-0.5,1.3-1,1.9-1.5
	c0.2,0.1,0.4,0.2,0.7,0.2c0.4,0.1,0.8,0,1.2,0c0.4,0.7,0.8,1.3,1.3,2L606,442.3z M637.2,471c0.5-0.5,0.8-1.2,0.8-2
	c0-0.6-0.1-1.2-0.3-2l-1.9,0.6c0.2,0.6,0.2,1,0.2,1.4c0,0.3-0.1,0.5-0.1,0.6c-0.1,0.1-0.5,0.3-1.8-0.2l-0.7,1.9
	c0.8,0.3,1.5,0.4,2.1,0.4C636.1,471.7,636.7,471.5,637.2,471z M631.4,468.1c-1.5-0.9-3.1-2-4.9-3.5l-1.2,1.6
	c1.9,1.5,3.6,2.7,5.1,3.6L631.4,468.1z M636.4,464c-0.8-1.6-1.9-3.4-3.2-5.4l-1.6,1.1c1.3,1.9,2.3,3.6,3.1,5.1L636.4,464z
	 M624.2,462.7c-1.5-1.3-3-2.6-4.5-4.1l-1.4,1.4c1.5,1.5,3.1,2.9,4.6,4.2L624.2,462.7z M617.6,456.4c-0.6-0.6-1.2-1.2-1.8-1.9
	c-0.8-0.9-1.6-1.7-2.3-2.6l-1.5,1.3c0.8,0.9,1.6,1.7,2.4,2.6c0.6,0.7,1.2,1.3,1.8,1.9L617.6,456.4z M631.3,456.1
	c-1.2-1.6-2.5-3.2-3.9-4.8l-1.5,1.3c1.4,1.6,2.6,3.2,3.8,4.8L631.3,456.1z M611.4,449.6c-1.3-1.6-2.6-3.2-3.7-4.8l-1.6,1.2
	c1.1,1.6,2.4,3.2,3.8,4.9L611.4,449.6z M625.4,449c-0.6-0.6-1.1-1.2-1.7-1.9c-0.9-0.9-1.7-1.8-2.5-2.6l-1.4,1.4
	c0.8,0.8,1.7,1.7,2.5,2.6c0.6,0.6,1.1,1.2,1.7,1.8L625.4,449z M619,442.3c-1.6-1.5-3.1-2.9-4.6-4.1l-1.3,1.5c1.5,1.2,3,2.6,4.5,4.1
	L619,442.3z M602.8,435.9c-0.7-0.1-1.1-0.7-1.1-1.4c0-0.1,0-0.1,0-0.2c0-0.2,0.1-0.5,0.3-0.6l-1.5-1.3c-0.4,0.5-0.6,1-0.7,1.6
	c0,0.2,0,0.4,0,0.5c0,1.7,1.2,3.1,2.8,3.3l0.1,0L602.8,435.9z M606.4,435c0-0.2,0-0.4,0-0.6c0-1.7-1.2-3-2.8-3.3l-0.2,0l0,1l-0.2,1
	l0.1,0c0.6,0.1,1.1,0.7,1.1,1.3c0,0.1,0,0.1,0,0.2c0,0.2-0.1,0.5-0.3,0.6l1.6,1.3C606,436.2,606.3,435.6,606.4,435z M441.2,443.1
	c0.2-0.2,0.4-0.3,0.6-0.5c0.2,0.1,0.4,0.2,0.7,0.2c0.4,0.1,0.8,0,1.2,0c0.4,0.7,0.8,1.3,1.3,2l1.7-1.1c-0.6-0.9-1.1-1.7-1.5-2.5
	l-0.3-0.6l-0.9,0.1c-0.4,0-0.7,0.1-1,0c-0.1,0-0.3-0.1-0.4-0.2c-0.1-0.1-0.3-0.1-0.4-0.2l-0.6-0.2l-0.7,0.6c-0.3,0.3-0.7,0.6-1,0.9
	l-0.3,0.3l-0.2,3.4l2,0.1L441.2,443.1z M435.7,530.5l-2-0.1l-0.4,6.1l2,0.1L435.7,530.5z M436.2,521.4l-2-0.1l-0.4,6.1l2,0.1
	L436.2,521.4z M436.8,512.3l-2-0.1l-0.4,6.1l2,0.1L436.8,512.3z M437.4,503.2l-2-0.1l-0.4,6.1l2,0.1L437.4,503.2z M438,494.1l-2-0.1
	l-0.4,6.1l2,0.1L438,494.1z M438.6,485l-2-0.1l-0.4,6.1l2,0.1L438.6,485z M439.1,475.9l-2-0.1l-0.4,6.1l2,0.1L439.1,475.9z
	 M439.7,466.8l-2-0.1l-0.4,6.1l2,0.1L439.7,466.8z M440.3,457.7l-2-0.1l-0.4,6.1l2,0.1L440.3,457.7z M440.9,448.7l-2-0.1l-0.4,6.1
	l2,0.1L440.9,448.7z M436.9,541.5H435l0.1-1.9l-2-0.1l-0.3,4.1h4.1V541.5z M447,541.5h-6.7v2h6.7V541.5z M454.1,539.4l-2,0.1
	l0.1,1.9h-1.9v2h4.1L454.1,539.4z M453.9,536.3l-0.4-6.2l-2,0.1l0.4,6.2L453.9,536.3z M453.3,527.1l-0.4-6.2l-2,0.1l0.4,6.2
	L453.3,527.1z M452.7,517.8l-0.4-6.2l-2,0.1l0.4,6.2L452.7,517.8z M452.1,508.6l-0.4-6.2l-2,0.1l0.4,6.2L452.1,508.6z M451.6,499.3
	l-0.4-6.2l-2,0.1l0.4,6.2L451.6,499.3z M451,490.1l-0.4-6.2l-2,0.1l0.4,6.2L451,490.1z M450.4,480.8l-0.4-6.2l-2,0.1l0.4,6.2
	L450.4,480.8z M449.8,471.6l-0.4-6.2l-2,0.1l0.4,6.2L449.8,471.6z M449.2,462.3l-0.4-6.2l-2,0.1l0.4,6.2L449.2,462.3z M448.6,453.1
	l-0.4-6.2l-2,0.1l0.4,6.2L448.6,453.1z M452.5,436.2c-0.7-0.5-1.4-1-2-1.5c0-1.3-0.3-2.6-0.9-3.7c0.3-0.7,0.6-1.5,0.9-2.4l-1.9-0.7
	c-0.3,1-0.7,1.9-1,2.7l-0.2,0.5l0.3,0.5c0.7,1,1,2.2,0.8,3.4l-0.1,0.6l0.5,0.3c0.8,0.5,1.6,1.1,2.4,1.7L452.5,436.2z M453,419.7
	l-2-0.4c-0.5,2.1-1,4-1.5,5.8l1.9,0.6C452,423.8,452.5,421.8,453,419.7z M442.7,417.1l-2-0.2c-0.2,2.1-0.4,4.2-0.5,6.1l2,0.1
	C442.3,421.2,442.5,419.2,442.7,417.1z M454.3,413c0.1-0.8,0.3-1.6,0.4-2.4l-2-0.3c-0.1,0.8-0.2,1.5-0.4,2.3
	c-0.2,1.2-0.4,2.5-0.7,3.6l2,0.4C453.8,415.5,454.1,414.3,454.3,413z M443.5,411.3c0.2-1,0.4-2.1,0.5-3.1l-2-0.4
	c-0.2,1-0.4,2.1-0.6,3.1c-0.2,1-0.3,2-0.4,2.9l2,0.3C443.2,413.2,443.4,412.2,443.5,411.3z M455.6,401.5l-2-0.1
	c-0.1,1.9-0.3,3.9-0.5,6l2,0.2C455.3,405.5,455.5,403.4,455.6,401.5z M446.1,399.4l-1.9-0.5c-0.5,1.9-1,3.9-1.5,6l2,0.4
	C445.1,403.2,445.6,401.2,446.1,399.4z M455.7,397.1c0-1.8-0.1-3.5-0.2-4.9l-2,0.2c0.1,1.4,0.2,2.9,0.2,4.7c0,0.4,0,0.8,0,1.3l2,0
	C455.7,398,455.7,397.5,455.7,397.1z M449.2,391l-1.8-0.9c-0.8,1.6-1.6,3.5-2.3,5.8l1.9,0.6C447.7,394.3,448.5,392.4,449.2,391z
	 M454.9,389c-0.6-2.1-1.5-3.2-2.7-3.4c-1-0.2-2.1,0.4-3.1,1.7l1.6,1.3c0.6-0.7,1-1,1.2-1c0,0,0,0,0,0c0.2,0,0.6,0.5,1,2L454.9,389z
	 M438,434.5l0.5-0.1l0.2-0.7v-0.1c0.3-1.6,1.3-2.8,2.9-3.5l0.6-0.3l0-0.7c0-0.9-0.1-1.9-0.1-2.9l-2,0c0,0.8,0,1.6,0,2.4
	c-1.7,0.9-2.9,2.4-3.3,4.2c-0.7,0.2-1.5,0.5-2.3,0.8l0.7,1.9C436.2,435.1,437.1,434.8,438,434.5z M403.9,459.8l-0.1-2
	c-0.1,0-0.3,0-0.4,0c-1.1,0-1.5-0.2-1.6-0.4c0,0,0-0.1,0-0.2c0-0.2,0.1-0.7,0.6-1.5l-1.7-1.1c-0.7,1-1,1.8-1,2.6
	c0,0.4,0.1,0.8,0.3,1.1c0.5,0.9,1.6,1.4,3.3,1.4C403.6,459.8,403.8,459.8,403.9,459.8z M413.1,457.5l-0.7-1.9
	c-2.1,0.8-4.1,1.4-5.7,1.7l0.4,2C408.8,458.9,410.8,458.3,413.1,457.5z M421.6,453.9l-0.9-1.8c-1.9,0.9-3.7,1.7-5.5,2.5l0.8,1.8
	C417.8,455.6,419.6,454.8,421.6,453.9z M408.8,449.7l-1.2-1.6c-1.9,1.4-3.5,2.8-4.7,4.1l1.4,1.4C405.5,452.4,407,451.1,408.8,449.7z
	 M426.6,451.2c1.1-0.6,2.1-1.1,3.1-1.7l-1-1.7c-1,0.6-2,1.1-3,1.7c-0.8,0.4-1.5,0.8-2.3,1.2l0.9,1.8
	C425.1,452.1,425.8,451.7,426.6,451.2z M437.4,444.5l-1.2-1.6c-1.6,1.1-3.2,2.2-5,3.3l1.1,1.7C434.1,446.8,435.8,445.7,437.4,444.5z
	 M416.3,444.6l-1-1.7c-1.8,1.1-3.6,2.2-5.2,3.4l1.1,1.6C412.8,446.8,414.5,445.7,416.3,444.6z M421.4,441.7c0.9-0.5,1.8-1,2.8-1.4
	l-0.9-1.8c-0.9,0.5-1.9,1-2.8,1.5c-0.9,0.5-1.8,1-2.6,1.5l1,1.7C419.7,442.6,420.6,442.2,421.4,441.7z M432.4,436.5l-0.7-1.9
	c-1.8,0.7-3.7,1.6-5.6,2.5l0.9,1.8C428.8,438,430.6,437.2,432.4,436.5z M446.6,442.3c-0.6-0.9-1.1-1.7-1.5-2.5l-0.3-0.6l-0.9,0.1
	c-0.4,0-0.7,0.1-1,0c-0.1,0-0.2-0.1-0.4-0.2c-0.1-0.1-0.3-0.1-0.4-0.2l-0.6-0.2l-0.4,0.4c-0.7,0.6-1.5,1.2-2.3,1.9l1.2,1.6
	c0.7-0.5,1.3-1,1.9-1.5c0.2,0.1,0.4,0.2,0.7,0.2c0.4,0.1,0.8,0,1.2,0c0.4,0.7,0.8,1.3,1.3,2L446.6,442.3z M477.8,471
	c0.5-0.5,0.8-1.2,0.8-2c0-0.6-0.1-1.2-0.3-2l-1.9,0.6c0.2,0.6,0.2,1,0.2,1.4c0,0.3-0.1,0.5-0.1,0.6c-0.1,0.1-0.5,0.3-1.8-0.2
	l-0.7,1.9c0.8,0.3,1.5,0.4,2.1,0.4C476.7,471.7,477.3,471.5,477.8,471z M472,468.1c-1.5-0.9-3.1-2-4.9-3.5l-1.2,1.6
	c1.9,1.5,3.6,2.7,5.1,3.6L472,468.1z M477,464c-0.8-1.6-1.9-3.4-3.2-5.4l-1.6,1.1c1.3,1.9,2.3,3.6,3.1,5.1L477,464z M464.8,462.7
	c-1.5-1.3-3-2.6-4.5-4.1l-1.4,1.4c1.5,1.5,3.1,2.9,4.6,4.2L464.8,462.7z M458.1,456.4c-0.6-0.6-1.2-1.2-1.8-1.9
	c-0.8-0.9-1.6-1.7-2.3-2.6l-1.5,1.3c0.8,0.9,1.6,1.7,2.4,2.6c0.6,0.7,1.2,1.3,1.8,1.9L458.1,456.4z M471.9,456.1
	c-1.2-1.6-2.5-3.2-3.9-4.8l-1.5,1.3c1.4,1.6,2.6,3.2,3.8,4.8L471.9,456.1z M452,449.6c-1.3-1.6-2.6-3.2-3.7-4.8l-1.6,1.2
	c1.1,1.6,2.4,3.2,3.8,4.9L452,449.6z M466,449c-0.6-0.6-1.1-1.2-1.7-1.9c-0.9-0.9-1.7-1.8-2.5-2.6l-1.4,1.4c0.8,0.8,1.7,1.7,2.5,2.6
	c0.6,0.6,1.1,1.2,1.7,1.8L466,449z M459.5,442.3c-1.6-1.5-3.1-2.9-4.6-4.1l-1.3,1.5c1.5,1.2,3,2.6,4.5,4.1L459.5,442.3z
	 M443.4,435.9c-0.7-0.1-1.1-0.7-1.1-1.4c0-0.1,0-0.1,0-0.2c0-0.2,0.1-0.5,0.3-0.6l-1.5-1.3c-0.4,0.5-0.6,1-0.7,1.6
	c0,0.2,0,0.4,0,0.5c0,1.7,1.2,3.1,2.7,3.3l0.2,0L443.4,435.9z M446.9,435c0-0.2,0-0.4,0-0.6c0-1.7-1.2-3-2.8-3.3l-0.2,0l0,1l-0.2,1
	l0.1,0c0.6,0.1,1.1,0.7,1.1,1.3c0,0.1,0,0.2,0,0.2c0,0.2-0.1,0.5-0.3,0.6l1.6,1.3C446.6,436.2,446.8,435.6,446.9,435z"/>
</svg>
