<svg xmlns="http://www.w3.org/2000/svg" viewBox="0 0 82.83 100">
  <path d="M82.83,55.52a41.41,41.41,0,0,0-19-34.79l1.8-3.16A45.39,45.39,0,0,1,76.28,27.1l3-7.59C80.2,16.12,77,12.15,71,8.29L74,3h0a2,2,0,0,0,.27-1,2,2,0,0,0-3.73-1h0l-3,5.27C60.93,2.77,55.75,1.92,53.25,4.5l-5.17,6.44A44.61,44.61,0,0,1,62.2,15.57l-1.81,3.16a41.27,41.27,0,0,0-38,0l-1.81-3.16a44.6,44.6,0,0,1,14.12-4.63L29.58,4.5c-2.5-2.58-7.68-1.74-14.26,1.78L12.31,1h0A2,2,0,1,0,8.85,3h0l3,5.3C5.81,12.15,2.64,16.12,3.6,19.5l3,7.59a45.36,45.36,0,0,1,10.62-9.52L19,20.74a41.37,41.37,0,0,0,.36,69.81L15.65,97h0a2,2,0,0,0-.27,1,2,2,0,0,0,3.73,1h0l3.7-6.48a41.28,41.28,0,0,0,37.18,0L63.71,99h0a2,2,0,1,0,3.45-2h0l-3.7-6.47A41.42,41.42,0,0,0,82.83,55.52ZM41.42,90.94A35.42,35.42,0,1,1,76.84,55.52,35.46,35.46,0,0,1,41.42,90.94Zm0-32.42-.34,0a3,3,0,0,1-2.64-3.32l1.93-16.94a3,3,0,1,1,6,.68L44.4,55.86A3,3,0,0,1,41.42,58.52Zm2.85-3.34a3,3,0,0,1-2.49,3.44L15.06,62.89A3,3,0,0,1,14.12,57l26.72-4.27A3,3,0,0,1,44.27,55.18Z"
  fill="#231f20" />
</svg>
