<svg xmlns="http://www.w3.org/2000/svg" viewBox="0 0 595.64 182.53">
  <path d="M82.82,126.68a41.41,41.41,0,0,0-19-34.79l1.8-3.16a45.39,45.39,0,0,1,10.65,9.53l3-7.59C80.19,87.28,77,83.31,71,79.45l3-5.29h0a2,2,0,0,0-3.46-2h0l-3,5.27c-6.61-3.5-11.79-4.35-14.29-1.77L48.07,82.1a44.61,44.61,0,0,1,14.12,4.63l-1.81,3.16a41.27,41.27,0,0,0-38,0l-1.81-3.16A44.6,44.6,0,0,1,34.69,82.1l-5.12-6.44c-2.5-2.58-7.68-1.74-14.26,1.78l-3-5.28h0A2,2,0,1,0,8.76,74l.08.15h0l3,5.3c-6,3.85-9.21,7.82-8.25,11.2l3,7.59a45.36,45.36,0,0,1,10.62-9.52L19,91.9a41.37,41.37,0,0,0,.36,69.81l-3.71,6.45h0a2,2,0,0,0,3.46,2h0l3.7-6.48a41.28,41.28,0,0,0,37.18,0l3.72,6.48h0a2,2,0,1,0,3.45-2h0l-3.7-6.47A41.42,41.42,0,0,0,82.82,126.68ZM41.41,162.1a35.42,35.42,0,1,1,35.42-35.42A35.42,35.42,0,0,1,41.41,162.1Zm0-32.42h-.34a3,3,0,0,1-2.64-3.32l1.93-16.94a3,3,0,0,1,6,.68l-2,16.92A3,3,0,0,1,41.41,129.68Zm2.85-3.34a3,3,0,0,1-2.48,3.44h0L15,134a3,3,0,0,1-.94-5.89l26.72-4.27A3,3,0,0,1,44.26,126.34Z"
  fill="#231f20" />
  <path d="M465.4,148.15a17.19,17.19,0,1,0,17.19,17.19A17.17,17.17,0,0,0,465.4,148.15Zm0,26.56a9.61,9.61,0,0,1-9.63-9.63,9.63,9.63,0,1,1,19.27,0A9.61,9.61,0,0,1,465.4,174.71Zm95.83-26.56a17.19,17.19,0,1,0,17.19,17.19A17.17,17.17,0,0,0,561.23,148.15Zm0,26.56a9.61,9.61,0,0,1-9.63-9.63,9.45,9.45,0,0,1,9.63-9.63,9.63,9.63,0,0,1,0,19.27ZM421.39,148.15a17.19,17.19,0,1,0,17.19,17.19A17.17,17.17,0,0,0,421.39,148.15Zm0,26.56a9.61,9.61,0,0,1-9.63-9.63,9.63,9.63,0,1,1,19.27,0A9.61,9.61,0,0,1,421.39,174.71Zm168.25-30.58V115.6L561.23,86.14H534.64v58h-19.5l-25.26-46,26-13.12L490.14,33.37,512.79,7.3,509.15,0,474.77,17.44l4.43,8.85-117.7,74,34.63,43.82h-9.49v12h14.7c2.6-6,8.07-11,14.58-12h10.94c6.51,2,12,6,14.58,12h3.39c2.6-6,8.07-11,14.58-12h5.23V110.4L478,104l22.77,40.18H470.87c6.51,2,12,6,14.58,12h55.46c3.39-7,11.2-13.28,20.31-13.28s16.93,6.28,20.31,13.28h14.1v-12ZM443.28,99.3l-2.47,9.7-.28,1.09a.91.91,0,0,1,0,.15l.11-.08,3.74-2.13c.07,0,.16,0,.11.11L437,119.25a.08.08,0,0,1-.06,0,.07.07,0,0,1-.08,0v0l-2.67-13.09c0-.07.08-.15.14-.08.59.75,2.73,3.58,2.73,3.58l.55-3.86,1.95-13.56.27-1.9a.81.81,0,0,1,.1-.32l-.09.06-4.23,2.44-9.35,5.4a.08.08,0,0,1-.12-.09l8.29-32.61a.1.1,0,0,1,.08-.07h9.32c.07,0,.09.08.07.14L434,88l-.78,1.79a1.12,1.12,0,0,1-.13.23l4.5-2.65,10.1-6a.08.08,0,0,1,.12.09Zm99.36,19.84v-25H558.1l24.48,25ZM443.81,65.33h0Zm.54,42.87-.1.07v0Zm3.27-26.68,0-.06v.05Zm-13.25,24.61s0,.09,0,.14v0Zm-8-8.36.33-.19C426.56,97.71,426.44,97.8,426.4,97.76Z"
  fill="#231f20" />
  <polygon points="326.23 129.68 304.64 117.21 304.64 127.14 109.64 127.14 109.64 132.14 304.64 132.14 304.64 142.14 326.23 129.68" fill="#231f20" />
</svg>
