<svg xmlns="http://www.w3.org/2000/svg" viewBox="0 0 810 500">
  <path fill="none" stroke="#000" stroke-width="5" stroke-miterlimit="10" d="M138.1 402.3L263 330.2"/>
  <path d="M265.4 340.3l10-17.3h-19.9"/>
  <path fill="none" stroke="#000" stroke-width="5" stroke-miterlimit="10" d="M288.3 345l-124.9 72.1"/>
  <path d="M160.9 407l-9.9 17.3h19.9"/>
  <path fill="none" stroke="#000" stroke-width="5" stroke-miterlimit="10" d="M538.9 209.4l124.8-72.1"/>
  <path d="M666.2 147.4l10-17.3h-20"/>
  <path fill="none" stroke="#000" stroke-width="5" stroke-miterlimit="10" d="M663.5 107.9L538.7 180"/>
  <path d="M536.2 170l-10 17.2h20"/>
  <path fill="none" stroke="#000" stroke-width="5" stroke-miterlimit="10" d="M526.1 345L651 417"/>
  <path d="M643.5 424h19.9l-10-17.3"/>
  <path fill="none" stroke="#000" stroke-width="5" stroke-miterlimit="10" d="M676.3 402.2l-124.9-72.1"/>
  <path d="M558.9 323H539l9.9 17.3"/>
  <path fill="none" stroke="#000" stroke-width="5" stroke-miterlimit="10" d="M150.9 107.9L275.7 180"/>
  <path d="M268.2 187h20l-10-17.3"/>
  <g>
    <path fill="none" stroke="#000" stroke-width="5" stroke-miterlimit="10" d="M275.5 209.4l-124.8-72.1"/>
    <path d="M158.2 130h-20l10 17.3"/>
  </g>
  <g>
    <path d="M2.8 120.3v-5.9h6.7c1.5 0 2.8-1.2 2.8-2.8V68.3h11.4v10.4c0 .7.3 1.4.8 2l17 17.1c.5.5 1.2.8 2 .8.4 0 .7-.1 1.1-.2 1-.4 1.7-1.4 1.7-2.6V87l11.3 10.7c.5.5 1.2.8 1.9.8.4 0 .7-.1 1.1-.2 1-.4 1.7-1.4 1.7-2.6V88l12.4 11.6v12c0 1.5 1.2 2.8 2.8 2.8h13.9c1.1 0 2.1-.7 2.5-1.6h.1c.5.3 1 .5 1.6.5.4 0 .8-.1 1.1-.2.5.8 1.4 1.4 2.4 1.4h14.6c1 0 1.9-.5 2.4-1.4.4.2.7.2 1.1.2.5 0 1.1-.2 1.6-.5h.1c.4 1 1.4 1.6 2.5 1.6h7.5v5.9H2.8zM99 70.9c-.1-.3-.3-.6-.5-.8.2-.1.3-.2.4-.4.2.2.3.3.5.4l-.1.1c0 .3-.2.5-.3.7zm14.7 0c-.1-.2-.2-.5-.4-.7l-.1-.1c.2-.1.4-.3.5-.4l.4.4c-.2.3-.3.5-.4.8zm12.5-.9c-.4-.4-.9-.6-1.4-.7.2-.3.3-.6.3-1v-1l6.8 1.9h-3.8c-.7 0-1.4.3-1.9.8zm-39.7 0c-.5-.5-1.2-.8-2-.8h-3.8l6.8-1.9c-.1.3-.1.6 0 1s.2.7.3 1c-.4 0-.9.3-1.3.7zm3-26l2.6-1.3c0 .2 0 .5.1.7.1.2.1.5.3.7l-3-.1zm30.7 0c.1-.2.2-.4.3-.7.1-.2.1-.5.1-.7l2.6 1.3h-3z"/>
    <path d="M20.9 71.1v7.6c0 1.5.6 2.9 1.6 3.9l17 17.1c1.1 1.1 2.5 1.6 4 1.6.7 0 1.4-.1 2.1-.4 2.1-.9 3.4-2.9 3.4-5.1v-2.2l6.6 6.3c1.1 1 2.4 1.5 3.8 1.5.7 0 1.5-.1 2.2-.5 2-.9 3.4-2.9 3.4-5.1v-1.4l6.8 6.4v10.8c0 3.1 2.5 5.6 5.6 5.6h13.9c1.3 0 2.5-.4 3.4-1.2H95.6c.9.7 2.1 1.1 3.4 1.1h14.6c1.2 0 2.4-.4 3.4-1.1H117.9c.9.7 2.1 1.2 3.4 1.2h4.7v.4H5.6v-.4h3.9c3.1 0 5.6-2.5 5.6-5.6V71.1h5.8M113 35.8H99.7c-.3 0-.6.1-.9.2l-13.2 6.9-.1.1c-.1 0-.1.1-.1.1-.1 0-.1.1-.2.1 0 0-.1 0-.1.1v.1c0 .1-.1.1-.1.2l-.1.1c0 .1-.1.1-.1.2 0 0 0 .1-.1.1 0 .1 0 .1-.1.2v7.4c0 1.1.9 2.1 2 2.1s2-.9 2-2.1v-4.8h11.2l-1.9 14.7L75 67.9s-.1 0-.1.1c-.1 0-.1 0-.2.1-.1 0-.1.1-.2.1l-.1.1c-.1 0-.1.1-.2.2 0 0-.1 0-.1.1v.1c-.1.1-.1.1-.1.2l-.1.1c0 .1-.1.1-.1.2 0 0 0 .1-.1.1 0 .1-.1.2-.1.2V76.8c0 1.1.9 2.1 2 2.1s2-.9 2-2.1V72h7.1v4.8c0 1.1.9 2.1 2 2.1s2-.9 2-2.1v-4.6-.2h8l-5.1 39.6H77.4V98.3L59.5 81.6v14.2l-16-15.2v15.2l-17-17.1V65.5h-17v46.1H0v11.5h131.6v-11.5h-10.3l-5-39.6h8v4.8c0 1.1.9 2.1 2 2.1s2-.9 2-2.1v-4.6-.2h7.1v4.8c0 1.1.9 2.1 2 2.1s2-.9 2-2.1v-6.9-.1-.2-.2c0-.1 0-.1-.1-.2 0-.1 0-.1-.1-.2 0-.1-.1-.1-.1-.2s-.1-.1-.1-.2l-.1-.1-.1-.1-.1-.1-.1-.1c-.1 0-.1-.1-.2-.1l-.1-.1c-.1 0-.2-.1-.2-.1h-.1l-22.8-6.5-2.2-14.6h11.2v4.8c0 1.1.9 2.1 2 2.1s2-.9 2-2.1v-6.9-.1-.2-.2-.1c0-.1-.1-.2-.1-.2s0-.1-.1-.1c0-.1-.1-.1-.1-.2l-.1-.1s0-.1-.1-.1l-.1-.1-.1-.1c-.1-.1-.2-.1-.2-.2h-.1L114 36.1c-.4-.2-.7-.3-1-.3zm-18.1 6.9l5.3-2.7h12.3l5.3 2.7H94.9zm11.4 7.9l-2.7-3.5v-.2h5.3v.2l-2.6 3.5zm-3.7 4.9l.6-4.7 1.5 1.9-2.1 2.8zm7.5 0l-2.1-2.7 1.5-1.9.6 4.6zm-4.4 5.5l-2-2.5 2.7-3.5 2.7 3.5-2 2.5h-1.4zm-3.8 0l.1-.4.3.4h-.4zm8.6 0l.3-.4.1.4h-.4zm.7 6.8l-2.2-2.7h2.4l.4 2.7h-.6zm-10.2 0l.4-2.7h2.4l-2.2 2.7h-.6zm14.7 0l-.3-2 6.9 2h-6.6zm-25.4 0l6.9-2-.3 2h-6.6zm14.6 0l1.4-1.7 1.4 1.7h-2.8zm1.4 8.5l-4.8-4.2.1-.1h9.4l.1.1-4.8 4.2zm7.3 6.4l-5.3-4.7 4.2-3.7 1.1 8.4zm-14.6 0l1.1-8.4 4.2 3.7-5.3 4.7zm7.3 7.6l-6.6-4.6 6.6-5.9 6.6 5.9-6.6 4.6zm-9 6.3l1.1-8.5L104 92l-6.7 4.6zm18.1 0l-6.7-4.6 5.6-3.9 1.1 8.5zm-9.1 7.7l-8.5-4.8 8.5-5.9 8.5 5.9-8.5 4.8zm-10.8 6.1l1.1-8.5 7 4-8.1 4.5zm21.7 0l-8.1-4.6 7-4 1.1 8.6zM99 111.6l7.3-4.1 7.3 4.1H99z"/>
    <g>
      <path d="M46.6 57.3c-1.2 0-2.5-.1-3.9-.3-3-.4-5.8-.6-8.5-.6-.9 0-1.7 0-2.5.1 2.5-.8 5.6-1.2 9.3-1.2 1.7 0 3.5.1 5.4.3h.5c3.5-.3 6.3-.8 8.4-1.4l-.3.3c-1.7 1.9-4.5 2.8-8.4 2.8z"/>
      <path d="M59.9 47.6c-.9 4.4-13.1 5.2-13.1 5.2-2-.2-3.9-.3-5.7-.3-18.8 0-23.2 11.7-23.2 11.7s3.7-5 16.4-5c2.4 0 5.1.2 8.1.6 1.6.2 3 .3 4.3.3 14.6 0 13.2-12.5 13.2-12.5z"/>
    </g>
  </g>
  <path d="M802.5 113.9V75.2h-5v-4.6h-2.7V25h-5.2v45.6h-2.7v4.6h-3.3v-4.6h-2.7V41.7h-5.2v28.9H773v4.6h-7.1V48.8L732.4 64V48.8l-36.8 16.7v48.4H693v3.7h112.7v-3.7h-3.2zm-88.7-14.8h-4.7v-4.7h4.7v4.7zm0-9.2h-4.7v-4.7h4.7v4.7zm9.2 9.2h-4.7v-4.7h4.7v4.7zm0-9.2h-4.7v-4.7h4.7v4.7zm9.2 9.2h-4.7v-4.7h4.7v4.7zm0-9.2h-4.7v-4.7h4.7v4.7zm48.8-4.7h4.7v4.7H781v-4.7zm0 9.2h4.7v4.7H781v-4.7zm-4.5 4.7h-4.7v-4.7h4.7v4.7zm0-9.2h-4.7v-4.7h4.7v4.7zm9.6 24.8h-5.6v-8.8h5.6v8.8zm8.7-15.6h-4.7v-4.7h4.7v4.7zm0-9.2h-4.7v-4.7h4.7v4.7z"/>
  <g>
    <path d="M685 466.4h22.2v-48.9H685v48.9zm13.3-40h4.4v4.4h-4.4v-4.4zm0 8.9h4.4v4.4h-4.4v-4.4zm0 8.9h4.4v4.4h-4.4v-4.4zm0 8.9h4.4v4.4h-4.4v-4.4zm-8.9-26.7h4.4v4.4h-4.4v-4.4zm0 8.9h4.4v4.4h-4.4v-4.4zm0 8.9h4.4v4.4h-4.4v-4.4zm0 8.9h4.4v4.4h-4.4v-4.4zM779.1 426.5v39.9h22.2v-39.9h-22.2zm8.9 31.1h-4.4v-4.4h4.4v4.4zm0-8.8h-4.4v-4.4h4.4v4.4zm0-8.9h-4.4v-4.4h4.4v4.4zm8.9 17.7h-4.4v-4.4h4.4v4.4zm0-8.8h-4.4v-4.4h4.4v4.4zm0-8.9h-4.4v-4.4h4.4v4.4zM771.1 377H761l-7.3-2.2V466.5h22.2V381.6l-4.8-1.5V377zm-8.6 80.6h-4.4v-4.4h4.4v4.4zm0-8.9h-4.4v-4.4h4.4v4.4zm0-8.9h-4.4v-4.4h4.4v4.4zm0-8.9h-4.4v-4.4h4.4v4.4zm0-9.3h-4.4v-4.4h4.4v4.4zm0-8.9h-4.4v-4.4h4.4v4.4zm0-8.9h-4.4v-4.4h4.4v4.4zm0-8.9h-4.4v-4.4h4.4v4.4zm8.9 62.7H767v-4.4h4.4v4.4zm0-8.9H767v-4.4h4.4v4.4zm0-8.9H767v-4.4h4.4v4.4zm0-8.9H767v-4.4h4.4v4.4zm0-9.3H767v-4.4h4.4v4.4zm0-8.9H767v-4.4h4.4v4.4zm0-8.9H767v-4.4h4.4v4.4zm0-13.3v4.4H767v-4.4h4.4zM741.6 426.5v-13.2l-4.4-8.9h-4.4v-5.3h-4.4v5.3h-4.5l-4.4 8.9v13.2h-4.4l-4.4 4.6v35.6h40V431l-4.4-4.6h-4.7zm-8.9-13.3h4.4v4.4h-4.4v-4.4zm-8.9 0h4.4v4.4h-4.4v-4.4zm0 44.5h-4.4v-4.4h4.4v4.4zm0-8.9h-4.4v-4.4h4.4v4.4zm0-8.9h-4.4v-4.4h4.4v4.4zm0-17.8h4.4v4.4h-4.4v-4.4zm8.9 35.6h-4.4v-4.4h4.4v4.4zm0-8.9h-4.4v-4.4h4.4v4.4zm0-8.9h-4.4v-4.4h4.4v4.4zm0-17.8h4.4v4.4h-4.4v-4.4zm8.9 35.6h-4.4v-4.4h4.4v4.4zm0-8.9h-4.4v-4.4h4.4v4.4zm0-8.9h-4.4v-4.4h4.4v4.4z"/>
    <path d="M716.1 422.2v-1.6H714v-4.4h2.1v-3.9l.3-.5H714v-4.4h4.6l3.8-7.6.6-1.2v-9.3l-22.4 5.4v19.9h9.8v11.9l4.1-4.1 1.6-.2zm-2.1-23.8h4.4v4.4H714v-4.4zm-4.5 13.4h-4.4v-4.4h4.4v4.4zm0-8.9h-4.4v-4.4h4.4v4.4z"/>
  </g>
  <g>
    <path d="M81.5 406.9c-.3 0-.6.1-.9 0-.2 0-.4-.2-.6-.2-.3.2-.5.5-.8.7l-3.8 59.3h11.5l-3.6-57c-.8-1.1-1.3-2-1.8-2.8z"/>
    <path d="M93 410.4c-3-3.3-6-5.8-8.4-7.4.1-.9-.1-1.8-.6-2.4 1.1-2.6 2.1-6.4 2.9-10.8 1.4-8.3 1-15.3-.7-15.6-1.8-.3-4.3 6.2-5.7 14.5-.7 4.2-.9 7.9-.8 10.7-1 .5-1.9 1.4-2.1 2.6-2.7.8-6.2 2.3-10 4.3-7.4 4-12.7 8.6-11.9 10.1.8 1.6 7.5-.4 14.9-4.5 3.9-2.1 7-4.3 9.2-6.2.2.1.4.2.6.2h.9c1.4 2.5 3.8 5.6 6.8 8.8 5.7 6.2 11.4 10.2 12.7 9 1.5-1.1-2.1-7.1-7.8-13.3zm-12.1-6.5c-.8-.1-1.3-.9-1.2-1.6.1-.8.9-1.3 1.6-1.2.8.1 1.3.8 1.2 1.6-.1.8-.8 1.4-1.6 1.2zM114.8 422.8c-.2 0-.4.1-.7 0-.2 0-.3-.1-.4-.2-.2.2-.4.3-.6.5l-2.8 43.5h8.4l-2.7-41.8c-.4-.8-.8-1.4-1.2-2z"/>
    <path d="M123.2 425.4c-2.2-2.4-4.4-4.3-6.1-5.5.1-.7-.1-1.3-.4-1.8.8-1.9 1.6-4.7 2.1-7.9 1-6.1.8-11.2-.5-11.4-1.3-.2-3.2 4.6-4.2 10.7-.5 3.1-.7 5.8-.6 7.9-.8.3-1.4 1-1.5 1.9-2 .6-4.5 1.7-7.3 3.1-5.4 2.9-9.3 6.3-8.7 7.4.6 1.1 5.5-.3 11-3.3 2.8-1.5 5.2-3.1 6.7-4.5.1.1.3.1.4.2h.7c1 1.8 2.8 4.1 5 6.5 4.2 4.5 8.4 7.5 9.3 6.6 1-1-1.6-5.4-5.9-9.9zm-8.8-4.8c-.6-.1-.9-.6-.9-1.2.1-.6.6-.9 1.2-.9.6.1.9.6.9 1.2-.1.6-.7 1-1.2.9z"/>
    <g>
      <path d="M45.4 422.8c-.2 0-.4.1-.7 0-.2 0-.3-.1-.4-.2-.2.2-.4.3-.6.5L41 466.6h8.4l-2.7-41.8c-.5-.8-.9-1.4-1.3-2z"/>
      <path d="M53.9 425.4c-2.2-2.4-4.4-4.3-6.1-5.5.1-.7-.1-1.3-.4-1.8.8-1.9 1.6-4.7 2.1-7.9 1-6.1.8-11.2-.5-11.4-1.3-.2-3.2 4.6-4.2 10.7-.5 3.1-.7 5.8-.6 7.9-.8.3-1.4 1-1.5 1.9-2 .6-4.5 1.7-7.3 3.1-5.4 2.9-9.3 6.3-8.7 7.4.6 1.1 5.5-.3 11-3.3 2.8-1.5 5.2-3.1 6.7-4.5.1.1.3.1.4.2h.7c1 1.8 2.8 4.1 5 6.5 4.2 4.5 8.4 7.5 9.3 6.6.9-1-1.7-5.4-5.9-9.9zm-8.9-4.8c-.6-.1-.9-.6-.9-1.2.1-.6.6-.9 1.2-.9.6.1.9.6.9 1.2-.1.6-.6 1-1.2.9z"/>
    </g>
  </g>
  <g>
    <path fill="#00427A" d="M293 203h223v123H293z"/>
    <path fill="#FFF" d="M476.7 269.6c-3.6 0-6.3 2-7.2 5-.9-3.1-3.5-5-7.2-5-4.5 0-7.5 2.9-7.5 7.3V289.6c0 1.6-1.6 3.1-3.3 3.4-.1 0 0 0 0 0h7.1v-9.7l.3.2c1 .5 2.2.7 3.4.7 3.6 0 6.3-2 7.2-5 .9 3.1 3.5 5 7.2 5 4.5 0 7.5-2.9 7.5-7.3 0-4.3-3-7.3-7.5-7.3zm-14.4 11.6c-2.2 0-3.8-1.8-3.8-4.3 0-2.4 1.6-4.2 3.8-4.2 2.2 0 3.8 1.8 3.8 4.3 0 2.4-1.6 4.2-3.8 4.2zm14.4 0c-2.2 0-3.8-1.8-3.8-4.3 0-2.4 1.6-4.2 3.8-4.2 2.2 0 3.8 1.8 3.8 4.3 0 2.4-1.6 4.2-3.8 4.2z"/>
    <path fill="#FFF" d="M443.1 282.2c1.1.9 2.7 2.1 5.1 2.1 3.9 0 5.8-1.4 5.8-4.2 0-3.1-2.6-4.1-4.6-4.9-1.3-.5-2.3-.9-2.3-1.7 0-1.3 1.3-1.3 1.7-1.3 1.1 0 2.3.3 3.3 1l1.5-2.1c-1.4-1.1-2.8-1.5-5.1-1.5-2.2 0-4.8 1-4.8 3.8 0 2.9 2.2 3.8 4.1 4.5 1.4.5 2.5 1 2.5 2.2 0 .7-.4 1.4-2 1.4-1.2 0-2.7-.8-3.6-1.7l-1.6 2.4zM488.9 270.2v-4.7h-3.7v4.7h-3.4c1.7.3 3.4 2.5 3.4 3.8v9.8h3.7v-10.4h3.2v-3.2h-3.2z"/>
    <g fill="#FFF">
      <path d="M475.9 229.2V260s0 1.9-.4 3.1c-.8 2.2-2.7 3.9-5.1 4.4-.1 0 0 0 0 0H482v-38.3h-6.1z"/>
      <path d="M462.7 244.1c-5.7 0-10 2.9-11.6 7.6-1.6-4.6-5.9-7.6-11.6-7.6-5.8 0-10.2 3-11.7 7.9-1.6-4.8-5.9-7.9-11.7-7.9-7 0-11.8 4.3-12.3 10.9 2.8-3.4 7.2-6.8 12.9-5.8 3.3.3 5.6 3.2 5.6 7 0 4.1-2.6 7-6.2 7s-6.2-3-6.2-7.1c0-3 1.5-5.4 3.7-6.4-6.7 1.4-9.6 10.3-9.9 13.3v15c0 2.4-2.6 5.1-5.5 5.6-.1 0 0 0 0 0h11.6v-16.8l.6.3c1.7.8 3.6 1.1 5.6 1.1 5.8 0 10.2-3 11.7-7.9 1.6 4.8 5.9 7.9 11.7 7.9 5.7 0 10-2.9 11.6-7.6 1.6 4.6 5.9 7.6 11.6 7.6 7.4 0 12.4-4.9 12.4-12.1 0-7.1-4.9-12-12.3-12zm-23.2 19.1c-3.6 0-6.2-3-6.2-7.1 0-4 2.7-7 6.2-7 3.6 0 6.2 3 6.2 7 0 4.2-2.6 7.1-6.2 7.1zm23.2 0c-3.6 0-6.2-3-6.2-7.1 0-4 2.7-7 6.2-7 3.6 0 6.2 3 6.2 7 0 4.2-2.6 7.1-6.2 7.1z"/>
      <path d="M405.5 244.8h-11.6v16.9l-.6-.3c-1.7-.8-3.6-1.2-5.7-1.2-4.3 0-7.8 1.7-10 4.5v-4.5c-3.8 0-9.4-.1-12.1 3.8-2 2.9-1.7 5.4-1.7 5.4v.7c-.9-6-5.6-9.9-12.2-9.9-6.1 0-10.6 3.4-11.9 8.6-.3-8-9.2-8.6-11.3-8.6-2 0-11.3.7-11.3 9v14.3h6.1v-11.8c0-4.4 1.4-5.9 5.1-5.9 3.5 0 5.1 1.6 5.1 5.9v6.1c0 2.6-2.6 5.1-5.5 5.6-.1 0 0 0 0 0h11.6v-7.8c1.3 5.3 5.8 8.6 11.9 8.6 6.6 0 11.3-3.9 12.2-9.9v3.2c0 2.6-2.1 5.4-4.9 5.9-.1 0 0 0 0 0h11.1v-12.3c0-3.7 1.7-5.6 6.8-5.2-1 1.8-1.5 3.9-1.5 6.3 0 7.2 5 12.1 12.4 12.1 7 0 11.8-4.3 12.3-10.9-2.8 3.4-7.3 6.8-13 5.8-3.3-.3-5.6-3.2-5.6-7.1 0-4 2.7-7 6.2-7 3.6 0 6.2 3 6.2 7 0 3.1-1.5 5.5-3.8 6.5 6.8-1.3 9.7-10.4 10-13.3v-13.5-1.4c.2-2.3 2.8-5.1 5.7-5.6zm-53.9 34.6c-3.6 0-6.2-3-6.2-7.1 0-4 2.7-7 6.2-7 3.6 0 6.2 3 6.2 7 0 4.1-2.6 7.1-6.2 7.1z"/>
    </g>
  </g>
  <g>
    <path fill="#FFF" d="M68.3 50.3c-20.7 0-37.5 16.8-37.5 37.5s16.8 37.5 37.5 37.5 37.5-16.8 37.5-37.5S89 50.3 68.3 50.3z"/>
    <path d="M68.3 57.4C85 57.4 98.6 71 98.6 87.8S85 118.1 68.3 118.1s-30.4-13.6-30.4-30.4 13.6-30.3 30.4-30.3m0-5c-19.6 0-35.4 15.9-35.4 35.4s15.9 35.4 35.4 35.4 35.4-15.9 35.4-35.4-15.9-35.4-35.4-35.4zM58.2 70.1c-2.8 0-5.1 3.4-5.1 7.6 0 4.2 2.3 7.6 5.1 7.6s5.1-3.4 5.1-7.6c-.1-4.2-2.3-7.6-5.1-7.6zm20.2 0c-2.8 0-5.1 3.4-5.1 7.6 0 4.2 2.3 7.6 5.1 7.6s5.1-3.4 5.1-7.6c0-4.2-2.3-7.6-5.1-7.6zm12.5 23.5c.4-1.3-.4-2.7-1.7-3.1-1.3-.4-2.7.4-3.1 1.7-2.3 7.9-9.6 13.4-17.8 13.4S52.8 100 50.5 92.1c-.4-1.3-1.8-2.1-3.1-1.7-1.3.4-2.1 1.8-1.7 3.1 2.9 10 12.2 17 22.7 17s19.6-6.9 22.5-16.9z"/>
  </g>
  <g>
    <path fill="#FFF" d="M749.6 43.7c-20.7 0-37.5 16.8-37.5 37.5s16.8 37.5 37.5 37.5 37.5-16.8 37.5-37.5-16.8-37.5-37.5-37.5z"/>
    <path d="M749.6 50.8c16.7 0 30.4 13.6 30.4 30.4s-13.6 30.4-30.4 30.4c-16.7 0-30.4-13.6-30.4-30.4s13.7-30.4 30.4-30.4m0-5.1c-19.6 0-35.4 15.9-35.4 35.4s15.9 35.4 35.4 35.4c19.6 0 35.4-15.9 35.4-35.4s-15.8-35.4-35.4-35.4zm-10.1 17.8c-2.8 0-5.1 3.4-5.1 7.6 0 4.2 2.3 7.6 5.1 7.6s5.1-3.4 5.1-7.6c0-4.2-2.3-7.6-5.1-7.6zm20.2 0c-2.8 0-5.1 3.4-5.1 7.6 0 4.2 2.3 7.6 5.1 7.6s5.1-3.4 5.1-7.6c0-4.2-2.3-7.6-5.1-7.6zm12.6 23.4c.4-1.3-.4-2.7-1.7-3.1-1.3-.4-2.7.4-3.1 1.7-2.3 7.9-9.6 13.4-17.8 13.4-8.2 0-15.5-5.5-17.8-13.4-.4-1.3-1.8-2.1-3.1-1.7-1.3.4-2.1 1.8-1.7 3.1 2.9 10 12.2 17 22.7 17 10.3 0 19.6-7 22.5-17z"/>
  </g>
  <g>
    <path fill="#FFF" d="M749.6 394.7c-20.7 0-37.5 16.8-37.5 37.5s16.8 37.5 37.5 37.5 37.5-16.8 37.5-37.5-16.8-37.5-37.5-37.5z"/>
    <path d="M749.6 401.8c16.7 0 30.4 13.6 30.4 30.4 0 16.7-13.6 30.4-30.4 30.4-16.7 0-30.4-13.6-30.4-30.4.1-16.8 13.7-30.4 30.4-30.4m0-5.1c-19.6 0-35.4 15.9-35.4 35.4 0 19.6 15.9 35.4 35.4 35.4 19.6 0 35.4-15.9 35.4-35.4s-15.8-35.4-35.4-35.4zm-10.1 17.8c-2.8 0-5.1 3.4-5.1 7.6 0 4.2 2.3 7.6 5.1 7.6s5.1-3.4 5.1-7.6c0-4.2-2.3-7.6-5.1-7.6zm20.2 0c-2.8 0-5.1 3.4-5.1 7.6 0 4.2 2.3 7.6 5.1 7.6s5.1-3.4 5.1-7.6c0-4.2-2.3-7.6-5.1-7.6zm12.6 23.4c.4-1.3-.4-2.7-1.7-3.1-1.3-.4-2.7.4-3.1 1.7-2.3 7.9-9.6 13.4-17.8 13.4-8.2 0-15.5-5.5-17.8-13.4-.4-1.3-1.8-2.1-3.1-1.7-1.3.4-2.1 1.8-1.7 3.1 2.9 10 12.2 17 22.7 17 10.3 0 19.6-7 22.5-17z"/>
  </g>
  <g>
    <path fill="#FFF" d="M68.3 394.7c-20.7 0-37.5 16.8-37.5 37.5s16.8 37.5 37.5 37.5 37.5-16.8 37.5-37.5-16.8-37.5-37.5-37.5z"/>
    <path d="M68.3 401.8c16.7 0 30.4 13.6 30.4 30.4 0 16.7-13.6 30.4-30.4 30.4S37.9 449 37.9 432.2c0-16.8 13.6-30.4 30.4-30.4m0-5.1c-19.6 0-35.4 15.9-35.4 35.4 0 19.6 15.9 35.4 35.4 35.4s35.4-15.9 35.4-35.4-15.9-35.4-35.4-35.4zm-10.1 17.8c-2.8 0-5.1 3.4-5.1 7.6 0 4.2 2.3 7.6 5.1 7.6s5.1-3.4 5.1-7.6c-.1-4.2-2.3-7.6-5.1-7.6zm20.2 0c-2.8 0-5.1 3.4-5.1 7.6 0 4.2 2.3 7.6 5.1 7.6s5.1-3.4 5.1-7.6c0-4.2-2.3-7.6-5.1-7.6zm12.5 23.4c.4-1.3-.4-2.7-1.7-3.1-1.3-.4-2.7.4-3.1 1.7-2.3 7.9-9.6 13.4-17.8 13.4s-15.5-5.5-17.8-13.4c-.4-1.3-1.8-2.1-3.1-1.7-1.3.4-2.1 1.8-1.7 3.1 2.9 10 12.2 17 22.7 17s19.6-7 22.5-17z"/>
  </g>
</svg>
