<svg xmlns="http://www.w3.org/2000/svg" viewBox="0 0 800 600">
	<path fill="#001C37" d="M227.2,193.6H224c-10.8,0-20.2,7.2-23.1,17.5L37.6,264.1c-2.5-7.4-9.4-12.4-17.3-12.4h-2.1
		C8.2,251.7,0,259.8,0,270l0,0v47.3c0,10.1,8.2,18.2,18.3,18.2h2.1c8.1,0,15.2-5.4,17.5-13.2L90.3,344v14.6c0,8.5,6.9,15.5,15.5,15.5
		c0,0,0,0,0,0h36.1c3.7,0,7.3-1.7,9.7-4.5l49.8,20.8c3.4,9.6,12.5,16,22.7,16h3.2c13.4,0,24.2-10.8,24.2-24.2l0,0V217.8
		C251.4,204.5,240.6,193.6,227.2,193.6z M38.7,277.4l161.2-52.2v150.5L38.7,308.6V277.4z M20.4,322.6h-2.1c-3,0-5.4-2.4-5.4-5.4l0,0
		V270c0-3,2.4-5.4,5.4-5.4l0,0h2.1c3,0,5.4,2.4,5.4,5.4l0,0v42.9l0,0v4.3C25.8,320.1,23.4,322.6,20.4,322.6
		C20.4,322.6,20.4,322.6,20.4,322.6z M105.7,361.2c-1.4,0-2.6-1.2-2.6-2.6l0,0v-9.2l28.4,11.8H105.7z M238.5,382.2
		c0,6.2-5.1,11.3-11.3,11.3H224c-6.2,0-11.3-5.1-11.3-11.3V217.8c0-6.2,5.1-11.3,11.3-11.3h3.2c6.2,0,11.3,5.1,11.3,11.3V382.2z
		 M315.9,296.8h-45.1c-3.6,0-6.4,2.9-6.4,6.4s2.9,6.4,6.4,6.4h45.1c3.6,0,6.4-2.9,6.4-6.4S319.4,296.8,315.9,296.8z M269.5,272.8
		c1.7,0,3.3-0.6,4.5-1.8l34-34c2.3-2.7,2-6.8-0.7-9.1c-2.4-2.1-6-2.1-8.4,0l-34,34c-2.5,2.6-2.4,6.7,0.2,9.1
		C266.3,272.1,267.8,272.8,269.5,272.8z M274,335.9c-2.7-2.3-6.8-2-9.1,0.7c-2.1,2.4-2.1,6,0,8.4l34,34c2.7,2.3,6.8,2,9.1-0.7
		c2.1-2.4,2.1-6,0-8.4L274,335.9z"/>
	<path fill="#001C37" d="M794.6,363.7c-3.3-0.4-6.4,2-6.8,5.3c0,0.3-4.6,34.6-36.8,38.9c-41.1,5.5-50.2-17.2-56.3-32.3l-0.3-0.9
		c-5.5-13.7-9.6-26.1-12.5-35.2c-3.2-9.8-5.1-15.7-7.2-18.8c-1.7-2.5-41.5-62,8.9-111.6c17.6-17.3,41.4-22.4,63.6-13.6
		c21.6,8.5,35.6,27.6,36.5,49.7c0.1,3.4,3,6,6.3,5.8c3.4-0.1,6-3,5.8-6.3c-1.1-26.6-18.4-50.4-44.2-60.6
		c-26.9-10.6-55.5-4.5-76.6,16.3c-21.8,21.5-31.6,48.2-28.4,77.3c3,26.7,15.5,46.2,18,49.8c1.2,1.7,3.4,8.5,5.7,15.7
		c3,9.2,7.1,21.9,12.8,36l0.3,0.8c5.9,14.7,16.4,40.8,55.4,40.8c4.2,0,8.8-0.3,13.8-1c33.1-4.5,45.4-34.3,47.2-49.5
		C800.4,367.1,798,364.1,794.6,363.7z M769.2,298.4c2-0.5,4.4,0.5,5.2,0.9c2.8,1.8,6.6,0.9,8.4-1.9c1.8-2.8,0.9-6.6-1.9-8.4
		c-0.7-0.4-7.2-4.3-14.6-2.4c-3.2,0.8-7.7,3.1-11.1,9.1c-6.2,11.1,1.1,24.3,6,33c1.2,2.2,2.7,4.9,3,5.8c1.6,6.2-0.4,13.1-4.8,16.4
		c-4.9,3.7-10.7,1.7-14.8-0.6c-18-10.3-24-28.4-17.8-53.9c6.6-27.3,27.3-32.7,32.1-33.6c1.9,5.9,2.4,10.6,2.4,10.7
		c0.3,3.3,3.3,5.8,6.7,5.4c3.3-0.3,5.8-3.3,5.4-6.7c-0.1-1.1-2.9-26.9-20.6-39.5c-9.2-6.5-20.4-8.2-33.4-5.1
		c-19.8,4.7-31.4,20.4-33.8,45.4c-1.7,17.7,2,33.9,2.2,34.6c0.7,2.8,3.1,4.7,5.9,4.7c0.5,0,0.9,0,1.4-0.2c3.3-0.7,5.3-4,4.6-7.3
		c0-0.2-3.4-15.2-1.9-31c1.9-19.4,10.1-31,24.5-34.5c9.6-2.3,17.2-1.2,23.5,3.2c3.3,2.4,6,5.5,8,8.8c-9.8,2.5-31.5,11.6-38.9,42.1
		c-9.4,39.1,7.6,58.2,23.6,67.3c5,2.8,10,4.2,14.7,4.2c4.9,0,9.5-1.5,13.5-4.6c8.4-6.4,12.1-18.1,9.2-29.1c-0.6-2.5-2.2-5.2-4.1-8.7
		c-3.5-6.3-8.9-15.9-6-21.1C767.3,298.9,768.7,298.5,769.2,298.4z M630.1,353.4l-41.1,31.9c-3.2,2.5-3.7,7-1.3,10.2
		c1.4,1.8,3.6,2.8,5.7,2.8c1.6,0,3.1-0.5,4.4-1.5l41.1-31.9c3.2-2.5,3.7-7,1.3-10.2C637.9,351.5,633.3,350.9,630.1,353.4z M621,290.3
		c-0.3-3.9-3.7-6.8-7.7-6.5l-71.9,5.7c-3.9,0.3-6.8,3.7-6.5,7.7c0.3,3.7,3.4,6.5,7.1,6.5c0.2,0,0.4,0,0.6,0l71.9-5.7
		C618.4,297.7,621.4,294.3,621,290.3z M569.7,205.1l52.6,15.2c0.7,0.2,1.4,0.3,2.1,0.3c3.4,0,6.4-2.2,7.4-5.6
		c1.2-4.1-1.2-8.4-5.3-9.6L574,190.2c-4.1-1.2-8.4,1.2-9.6,5.3C563.2,199.6,565.6,203.9,569.7,205.1z"/>
</svg>
