<svg xmlns="http://www.w3.org/2000/svg" viewBox="0 0 800 600">
  <path fill="#231F20" d="M254.9 213.8l.6-6.3-4 2.2-.5-6.3-6.5 4.4.7-5.6 46.8-45.9h1.7c.2.3.3.7.5.9.3.4.8.7 1.2 1-.3 1.5-.6 3.3-.8 5.2l-39.7 50.4zm40-38.5c-.1-7.2.4-13.6 1.4-18.1-.4-.3-.8-.6-1.2-1-.2-.3-.3-.6-.5-.9-4.6 0-10.9-.8-17.9-2.5-13.4-3.2-23.7-8-23-10.9.7-2.9 12.1-2.6 25.4.6 6.8 1.6 12.6 3.6 16.8 5.6 1.6-1.3 3.5-1.5 5.3-.9 2.9-3.6 7.2-7.9 12.6-12.2 10.7-8.6 20.9-13.8 22.7-11.5 1.8 2.2-5.4 11.1-16.1 19.7-5.7 4.6-11.1 8-15.3 10-.2 1.4-.8 2.6-1.9 3.6 1.1 4.5 1.9 10.9 2.1 18.2.3 13.8-1.9 24.9-4.8 25-2.8.1-5.4-11-5.6-24.7zm6.5-24.1c-.8-1-2.3-1.2-3.2-.4-1 .8-1.1 2.2-.4 3.2.8 1 2.3 1.1 3.2.4 1.1-.8 1.2-2.3.4-3.2zM185 159.6l-5.8 3.6-1-7.6-5.3 5.7-3.2-4.4 18.4-50.5c.8-.3 1.4-.5 2.1-.9.4.3.7.7 1.1.9.6.3 1.3.4 2 .5.5 2.1 1.2 4.3 2.1 6.8L185 159.6zm17.7-31.4c-4.4-8.8-7.4-16.9-8.9-23.1-.7-.1-1.3-.2-2-.5-.5-.2-.8-.6-1.1-.9-5.7 2.7-13.9 5.4-23.4 7.4-18.3 4-33.8 4-34.7.1-.9-3.9 13.3-10.2 31.7-14.2 9.3-2 17.7-2.9 23.9-2.9 1.2-2.5 3.5-3.9 6-4.2 1.5-6.1 4.3-13.9 8.4-22.4 8.1-16.9 17.6-29.2 21.2-27.4 3.6 1.7-.1 16.8-8.3 33.7-4.3 8.9-8.9 16.4-12.9 21.3.6 1.8.5 3.7-.3 5.6 4 4.9 8.7 12.3 13.2 21.1 8.4 16.8 12.3 31.8 8.7 33.6-3.4 1.7-13.1-10.5-21.5-27.2zm-6.1-33.5c-1.6-.8-3.5-.1-4.2 1.5-.7 1.6-.1 3.4 1.5 4.2 1.6.8 3.4.1 4.2-1.5.7-1.6 0-3.5-1.5-4.2zm-100.1 58c-.5.1-1 .1-1.5.1-.4-.1-.7-.3-1-.4-.4.4-.8.6-1.3 1L86.5 250h18.8l-5.9-92.9c-1.2-1.6-2.1-3-2.9-4.4zM257.7 221l-3.7-5-1.5 4.3-4.6-4.4-1.9 7.6-3.2-4.8-2 31.2h18.8l-1.9-28.9zM179 175.3l-3.1-7-3.5 7-4.4-3.3-5 78h25.6l-5.1-79.8-4.5 5.1zm-77.4-28.9c.2-1.5-.2-2.9-1-4 1.8-4.3 3.5-10.5 4.7-17.7 2.2-13.6 1.7-24.9-1.1-25.4-2.9-.5-7 10.1-9.2 23.7-1.1 6.8-1.5 12.9-1.3 17.5-1.7.8-3 2.2-3.4 4.2-4.4 1.3-10.1 3.7-16.2 7-12.1 6.6-20.8 14-19.3 16.5 1.4 2.5 12.3-.7 24.4-7.3 6.3-3.4 11.5-7 15-10.1.3.1.6.3 1 .4.5.1 1 0 1.5-.1 2.3 4 6.1 9.1 11.1 14.4 9.3 10.1 18.7 16.6 20.8 14.6 2.1-2-3.7-11.8-13.1-21.8-5.2-5.1-10.1-9.3-13.9-11.9zm-3.4-.3c-.2 1.2-1.4 2.1-2.6 1.9-1.2-.2-2.1-1.4-1.9-2.6.2-1.2 1.4-2.1 2.6-1.9 1.2.2 2.1 1.3 1.9 2.6z"/>
</svg>
