<svg xmlns="http://www.w3.org/2000/svg" viewBox="0 0 800 600">
  <path fill="#231F20" d="M471.7 534.1c-12.3 12.3-32.4 12.3-44.7 0-12.3-12.3-12.3-32.4 0-44.7m56.7 48.3c2.3-2.3 2.3-6.1 0-8.5l-51.8-51.8c-2.3-2.3-6.1-2.3-8.5 0-2.3 2.3-2.3 6.1 0 8.5l51.8 51.8c2.4 2.3 6.2 2.3 8.5 0zm-8-97c12.3-12.3 32.4-12.3 44.7 0 12.3 12.3 12.3 32.4 0 44.7m-56.7-48.2c-2.3 2.3-2.3 6.1 0 8.5l51.8 51.8c2.3 2.3 6.1 2.3 8.5 0 2.3-2.3 2.3-6.1 0-8.5l-51.8-51.8c-2.4-2.4-6.2-2.4-8.5 0zm-4 32.6c2.3-2.3 6.1-2.3 8.5 0 2.3 2.3 2.3 6.1 0 8.5l-14.4 14.4-8.5-8.5 14.4-14.4zm23.1 23.1c2.3-2.3 6.1-2.3 8.5 0 2.3 2.3 2.3 6.1 0 8.5l-14.4 14.4-8.5-8.5 14.4-14.4zm51-74.1c2.3-2.3 6.1-2.3 8.5 0 2.3 2.3 2.3 6.1 0 8.5l-21 21-8.5-8.5 21-21zM413.5 556.1c-2.3 2.3-6.1 2.3-8.5 0-2.3-2.3-2.3-6.1 0-8.5l21-21 8.5 8.5-21 21z"/>
</svg>
