<svg xmlns="http://www.w3.org/2000/svg" viewBox="0 0 800 600">
  <path fill="#231F20" d="M494.6 251.1c0-9.3-4.2-17.5-10.9-23-2 10.2-8.3 18.9-16.9 24.2-10.3-8.6-23.5-13.8-38-13.8-14.6 0-27.9 5.3-38.2 14-8.7-5.3-15.1-14.1-17.2-24.4-6.6 5.4-10.9 13.7-10.9 23 0 9.6 4.6 18.2 11.7 23.6-3 7.1-4.7 15-4.7 23.2 0 32.7 26.5 59.3 59.3 59.3s59.3-26.5 59.3-59.3c0-8.4-1.7-16.3-4.9-23.5 6.9-5.4 11.4-13.8 11.4-23.3zm-43 38.7c.8.3 1.5.7 2.1 1.3.6.6.9 1.4.9 2.4 0 .9-.2 1.8-.8 2.5-.5.7-1.3 1.2-2.2 1.5v-7.7zM449 273h1.9v4.1h-2l.1-4.1zm0 4.7c.1 0 .3 0 .4-.1h1s.3 0 .5.1v8.5c-.6-.2-1.3-.4-1.9-.6v-7.9zm0 11.3c.3.1.7.2 1 .2.3.1.6.2 1 .3v8c-.2 0-.3 0-.5.1s-.4 0-.6 0h-.8c-.1 0-.1-8.6-.1-8.6zm.8 9.2h1v5.1h-1.9v-5h.9zm-1.5-25.2v4.1c-.8.1-1.6.4-2.3.7-.7.3-1.3.7-1.8 1.2s-.9 1.1-1.2 1.7c-.3.7-.5 1.4-.5 2.3 0 1.3.4 2.4 1.2 3.2.8.9 1.8 1.5 3 2 .2.1.4.1.7.3l.9.3v8.7c-1-.2-1.8-.6-2.1-1.3-.4-.6-.6-1.4-.6-2.1 0-.3 0-.5.1-.7 0-.2.1-.4.2-.6-.1-.4-.3-.7-.6-1-.3-.3-.7-.4-1.2-.4s-1 .2-1.4.6c-.4.4-.6.9-.6 1.4 0 1.3.6 2.4 1.7 3.2 1.1.8 2.6 1.3 4.5 1.4v5.1c-7.6-.8-13.5-7.2-13.5-15.1 0-7.7 5.9-14.2 13.5-15zm0 4.8v7.6c-.8-.3-1.5-.8-2.1-1.4-.5-.6-.8-1.4-.8-2.4s.3-1.8.8-2.5c.5-.6 1.2-1.1 2.1-1.3zm-39.4 12c.8.3 1.5.7 2.1 1.3.6.6.9 1.4.9 2.4 0 .9-.2 1.8-.8 2.5-.5.7-1.3 1.2-2.2 1.5v-7.7zm4.4 6.3c1.1-1.1 1.7-2.3 1.7-3.8 0-1.3-.4-2.5-1.2-3.4-.8-.9-1.9-1.6-3.3-2.1-.3-.1-.5-.2-.8-.2-.2-.1-.5-.2-.8-.3v-8.5c.8.2 1.3.7 1.6 1.3.3.6.5 1.3.5 2 0 .3 0 .5-.1.7 0 .2-.1.4-.2.6.1.4.3.7.6 1 .3.3.7.4 1.1.4.6 0 1-.2 1.4-.6.4-.4.6-.9.6-1.4 0-1.3-.5-2.3-1.6-3.1-1.1-.8-2.4-1.3-4-1.5v-4.1c7.6.9 13.4 7.3 13.4 15 0 7.8-5.9 14.2-13.4 15V298c1.9-.2 3.3-.8 4.5-1.9zm-7-23.1h1.9v4.1h-2l.1-4.1zm0 4.7c.1 0 .3 0 .4-.1h1c.2 0 .3 0 .5.1v8.5c-.6-.2-1.3-.4-1.9-.6v-7.9zm0 11.3c.3.1.7.2 1 .2.3.1.6.2 1 .3v8c-.2 0-.3 0-.5.1h-1.4c-.1 0-.1-8.6-.1-8.6zm.8 9.2h1v5.1h-1.9v-5h.9zM392 288.1c0-7.8 5.9-14.3 13.5-15.1v4.1c-.8.1-1.6.4-2.3.7-.7.3-1.3.7-1.8 1.2s-.9 1.1-1.2 1.7c-.3.7-.5 1.4-.5 2.3 0 1.3.4 2.4 1.2 3.2.8.9 1.8 1.5 3 2 .2.1.4.1.7.3l.9.3v8.7c-1-.2-1.8-.6-2.1-1.3-.4-.6-.6-1.4-.6-2.1 0-.3 0-.5.1-.7 0-.2.1-.4.2-.6-.1-.4-.3-.7-.6-1-.3-.3-.7-.4-1.2-.4s-1 .2-1.4.6c-.4.4-.6.9-.6 1.4 0 1.3.6 2.4 1.7 3.2 1.1.8 2.6 1.3 4.5 1.4v5.1c-7.6-.7-13.5-7.2-13.5-15zm13.6-10.3v7.6c-.8-.3-1.5-.8-2.1-1.4-.5-.6-.8-1.4-.8-2.4s.3-1.8.8-2.5c.5-.6 1.2-1.1 2.1-1.3zm23.2 55.3c-13.2 0-25-7.9-30-20l3.2-1.3c1.3 3.2 3.2 6 5.4 8.4l5.5-1.8-1.2 5.7c4.8 3.5 10.8 5.6 17.1 5.6 6.3 0 12.2-2 17.1-5.6l-1.2-5.7 5.5 1.8c2.1-2.3 3.9-5 5.2-8l3.2 1.4c-5.2 11.8-16.9 19.5-29.8 19.5zm22.8-30V298c1.8-.2 3.3-.9 4.4-1.9 1.1-1.1 1.7-2.3 1.7-3.8 0-1.3-.4-2.5-1.2-3.4-.8-.9-1.9-1.6-3.3-2.1-.3-.1-.5-.2-.8-.2-.2-.1-.5-.2-.8-.3v-8.5c.8.2 1.3.7 1.6 1.3.3.6.5 1.3.5 2 0 .3 0 .5-.1.7 0 .2-.1.4-.2.6.1.4.3.7.6 1 .3.3.7.4 1.1.4.6 0 1-.2 1.4-.6.4-.4.6-.9.6-1.4 0-1.3-.5-2.3-1.6-3.1-1.1-.8-2.4-1.3-4-1.5v-4.1c7.6.9 13.4 7.3 13.4 15 .1 7.8-5.7 14.2-13.3 15z"/>
</svg>
