<svg xmlns="http://www.w3.org/2000/svg" viewBox="0 0 800 600">
  <path fill="#231F20" d="M535.1 133.7c-18.3 0-33.2-14.9-33.2-33.2s14.9-33.2 33.2-33.2c18.3 0 33.2 14.9 33.2 33.2s-14.9 33.2-33.2 33.2zm0-77.3c-.8 0-1.5-.7-1.5-1.5V34.4c0-.8.7-1.5 1.5-1.5s1.5.7 1.5 1.5v20.5c0 .9-.6 1.5-1.5 1.5zm0 112c-.8 0-1.5-.7-1.5-1.5v-20.5c0-.8.7-1.5 1.5-1.5s1.5.7 1.5 1.5v20.5c0 .8-.6 1.5-1.5 1.5zm66.2-66.2h-20.5c-.8 0-1.5-.7-1.5-1.5s.7-1.5 1.5-1.5h20.5c.8 0 1.5.7 1.5 1.5s-.6 1.5-1.5 1.5zm-111.9 0h-20.5c-.8 0-1.5-.7-1.5-1.5s.7-1.5 1.5-1.5h20.5c.8 0 1.5.7 1.5 1.5s-.7 1.5-1.5 1.5zm78.1-32.4c-.3 0-.8-.2-1-.5-.5-.5-.5-1.5 0-2.2l14.4-14.4c.5-.5 1.5-.5 2.2 0 .5.5.5 1.5 0 2.2l-14.4 14.4c-.4.4-.9.5-1.2.5zm-79.3 79.1c-.3 0-.8-.2-1-.5-.5-.5-.5-1.5 0-2.2l14.4-14.4c.5-.5 1.5-.5 2.2 0 .5.5.5 1.5 0 2.2l-14.4 14.6c-.4.3-.7.3-1.2.3zm93.8 0c-.3 0-.8-.2-1-.5L566.6 134c-.5-.5-.5-1.5 0-2.2.5-.5 1.5-.5 2.2 0l14.4 14.4c.5.5.5 1.5 0 2.2-.5.5-.8.5-1.2.5zm-79.2-79.1c-.3 0-.8-.2-1-.5l-14.6-14.4c-.5-.5-.5-1.5 0-2.2.5-.5 1.5-.5 2.2 0l14.4 14.4c.5.5.5 1.5 0 2.2-.4.4-.7.5-1 .5zm49.4-10.1c-.2 0-.3 0-.5-.2-.8-.3-1.2-1.2-.8-2l7.6-19c.3-.8 1.2-1.2 2-.8.8.3 1.2 1.2.8 2l-7.6 19.1c-.3.5-.8.9-1.5.9zm-42 103.8c-.2 0-.3 0-.5-.2-.8-.3-1.2-1.2-.8-2l7.6-18.8c.3-.8 1.2-1.2 2-.8s1.2 1.2.8 2l-7.6 19c-.3.4-.8.8-1.5.8zm86.4-36.4c-.2 0-.3 0-.5-.2l-19.1-7.6c-.8-.3-1.2-1.2-.8-2s1.2-1.2 2-.8l19 7.6c.8.3 1.2 1.2.8 2-.4.5-.9 1-1.4 1zm-104-42c-.2 0-.3 0-.5-.2l-19-7.6c-.7-.3-1.2-1.2-.8-2 .3-.8 1.2-1.2 2-.8l19 7.6c.8.3 1.2 1.2.8 2-.3.5-.8 1-1.5 1zm84.7-.9c-.5 0-1.2-.3-1.4-.8-.3-.8 0-1.7.8-2l18.8-8c.8-.3 1.7 0 2 .8.3.8 0 1.7-.8 2l-18.8 8h-.6zm-103.2 43.9c-.5 0-1.2-.3-1.4-.8-.3-.8 0-1.7.8-2l18.8-8c.8-.3 1.7 0 2 .8.3.8 0 1.7-.8 2l-18.8 8c-.2-.2-.4 0-.6 0zm86.9 35c-.5 0-1.2-.3-1.4-.8l-8-18.8c-.3-.8 0-1.7.8-2 .8-.3 1.7 0 2 .8l8 18.8c.3.8 0 1.7-.8 2h-.6zM517.2 60c-.5 0-1.2-.3-1.4-.8l-8-18.8c-.3-.8 0-1.7.8-2 .8-.3 1.7 0 2 .8l8 18.8c.3.8 0 1.7-.8 2h-.6zM698.6 231.6h-86.8c-8.1 0-14.7-6.6-14.7-14.7 0-6.9 4.7-12.7 11.1-14.2 2.8-7.1 9.4-12.2 17.1-13.1.8-16.5 14.5-29.7 31.2-29.7 12.3 0 23.2 7.2 28.3 17.9 4.2-2.3 8.9-3.5 13.7-3.5 15.8 0 28.7 12.9 28.7 28.7.1 15.7-12.8 28.6-28.6 28.6zm-65.2 21.9h-4.9c.8-1.4 1.6-2.8 2.5-4.3 1.8-3.2-3.1-6.1-4.9-2.9-.8 1.4-1.6 2.8-2.5 4.3-.8-1.4-1.6-2.9-2.5-4.3-1.8-3.2-6.8-.3-4.9 2.9.8 1.4 1.6 2.8 2.5 4.3h-4.9c-3.7 0-3.7 5.7 0 5.7h4.9c-.8 1.4-1.6 2.8-2.5 4.3-1.8 3.2 3.1 6.1 4.9 2.9.8-1.4 1.6-2.8 2.5-4.3.8 1.4 1.6 2.9 2.5 4.3 1.8 3.2 6.8.3 4.9-2.9-.8-1.4-1.6-2.8-2.5-4.3h4.9c3.7 0 3.7-5.7 0-5.7zm38.7 0h-4.9c.8-1.4 1.6-2.8 2.5-4.3 1.8-3.2-3.1-6.1-4.9-2.9-.8 1.4-1.6 2.8-2.5 4.3-.8-1.4-1.6-2.9-2.5-4.3-1.8-3.2-6.8-.3-4.9 2.9.8 1.4 1.6 2.8 2.5 4.3h-4.9c-3.7 0-3.7 5.7 0 5.7h4.9c-.8 1.4-1.6 2.8-2.5 4.3-1.8 3.2 3.1 6.1 4.9 2.9.8-1.4 1.6-2.8 2.5-4.3.8 1.4 1.6 2.9 2.5 4.3 1.8 3.2 6.8.3 4.9-2.9-.8-1.4-1.6-2.8-2.5-4.3h4.9c3.7 0 3.7-5.7 0-5.7zm38.7 0h-4.9c.8-1.4 1.6-2.8 2.5-4.3 1.8-3.2-3.1-6.1-4.9-2.9-.8 1.4-1.6 2.8-2.5 4.3-.8-1.4-1.6-2.9-2.5-4.3-1.8-3.2-6.8-.3-4.9 2.9.8 1.4 1.6 2.8 2.5 4.3h-4.9c-3.7 0-3.7 5.7 0 5.7h4.9c-.8 1.4-1.6 2.8-2.5 4.3-1.8 3.2 3.1 6.1 4.9 2.9.8-1.4 1.6-2.8 2.5-4.3.8 1.4 1.6 2.9 2.5 4.3 1.8 3.2 6.8.3 4.9-2.9-.8-1.4-1.6-2.8-2.5-4.3h4.9c3.7 0 3.7-5.7 0-5.7z"/>
</svg>
