<svg xmlns="http://www.w3.org/2000/svg" viewBox="0 0 800 600">
  <path fill="#231F20" d="M169.6 333.3c-33.2 0-60.2 26.9-60.2 60.2s26.9 60.2 60.2 60.2 60.2-26.9 60.2-60.2-26.9-60.2-60.2-60.2zm-25 45.1c0-4.2 3.4-7.5 7.5-7.5 4.2 0 7.5 3.4 7.5 7.5 0 4.2-3.4 7.5-7.5 7.5-4.2 0-7.5-3.3-7.5-7.5zm44.7 32.9l-37.6 14.1c-1.3.4-2.7-.3-3.1-1.7-.4-1.2.2-2.5 1.4-3l37.6-14.1c1.3-.5 2.7.2 3.2 1.5s-.2 2.7-1.5 3.2zm-2.1-25.4c-4.2 0-7.5-3.4-7.5-7.5 0-4.2 3.4-7.5 7.5-7.5 4.2 0 7.5 3.4 7.5 7.5 0 4.2-3.4 7.5-7.5 7.5z"/>
</svg>
