<svg xmlns="http://www.w3.org/2000/svg" viewBox="0 0 594 739">
  <path d="M202.7,338.11a54.28,54.28,0,1,1-54.28,54.28A54.28,54.28,0,0,1,202.7,338.11Zm21.45,218.3c-2.39-1.27-16.65-8.83-30.71-15.4,10.32-17.57,18.36-46.87,23.78-71.62a15,15,0,1,0-29.3-6.41c-5,22.83-12.23,46.15-17.79,58.42-6.89-13.28-14.62-40.19-18.35-53.23l-2-6.85a39.78,39.78,0,0,0-59.47-35.24C86.82,428.09,4,476.09,0,565a39.83,39.83,0,0,0,30.43,40.49,18.66,18.66,0,0,0,12.06,1.14l.71-.17A39.59,39.59,0,0,0,54.08,604c47.61-10.32,81.37-8.07,97.95,6.66a38.9,38.9,0,0,1,9.25,12.57c-6.25,12.84-14.61,26.67-20.05,35.68-13.66,22.57-25.44,42.07-26.35,58.51a18.75,18.75,0,0,0,17.69,19.74c.36,0,.7,0,1,0a18.75,18.75,0,0,0,18.7-17.72c.27-5,6.22-16.17,12.75-27.36-.26,2.11-.52,4.18-.78,6.19-1,7.62-1.87,14.8-2.2,20.94A18.74,18.74,0,0,0,179.76,739c.35,0,.69,0,1,0a18.75,18.75,0,0,0,18.7-17.71c.26-4.81,1-11,2-18.28,2.81-22.23,6.49-51.64-.09-78.3,5.86-16.14,7.79-31.69,1.9-45.38,2.7,1.39,5,2.61,6.75,3.53a15,15,0,0,0,14.13-26.46ZM120.26,502c8.74,21.08,17,36.85,25.64,46.82-17.18-1.07-38.23.35-63.66,4.28C89.24,528.93,108.47,511.08,120.26,502Z"
  fill="#231f20" />
  <path d="M541.16,103.55a63.65,63.65,0,0,0-62.39-77.95A63.13,63.13,0,0,0,451.41,32,76.7,76.7,0,0,0,316.63,51.64c-1.45-.1-2.83-.42-4.3-.42a63.64,63.64,0,0,0-62.79,76.09,63.83,63.83,0,1,0,75.62,102.84A62.85,62.85,0,0,0,405,249a63.84,63.84,0,0,0,125-18.53h0a63.94,63.94,0,0,0,11.18-126.91ZM344.33,268.87a32,32,0,1,1-32,32A32,32,0,0,1,344.33,268.87Zm-64,51.21a19.21,19.21,0,1,1-19.21,19.21A19.21,19.21,0,0,1,280.32,320.08Z"
  fill="#231f20" />
  <path d="M334,72h6.75c.32,6.07.18,12.26.18,18.43v55.7c1.15.21,2.85-.13,3.91.18.2,6.86.2,14.58,0,21.51A25.3,25.3,0,0,1,341,168v30.1a19,19,0,0,1-.24,4.15H334c-.32-5.51-.18-11.3-.18-17.07V168c-1.3-.12-3.12.27-4-.24V146.46c.91-.51,2.73-.11,4-.24V81.28A92.3,92.3,0,0,1,334,72Zm29.21,0H370c.32,4.41.18,8.94.18,13.45v40.71c1.17.17,2.74-.06,3.91.12a28.78,28.78,0,0,1,.18,5.28c0,5.31.1,11.07-.12,16.23a26.29,26.29,0,0,1-4,.12v40.88c0,4.49.14,9-.18,13.39h-6.7c-.41-4.33-.24-8.89-.24-13.39V147.94c-1.28-.1-3,.22-4-.18-.11-6.12-.06-12.74-.06-18.9a6.83,6.83,0,0,1,.18-2.55c1.17-.14,2.59,0,3.85-.06V85.49C363.06,80.95,362.92,76.46,363.23,72Zm28.32,0h6.75c.32,5.06.18,10.24.18,15.4v46.63c1.15.21,2.85-.13,3.91.18.2,6.87.2,14.58,0,21.51a24.72,24.72,0,0,1-3.85.12c-.11,11.46-.06,23.26-.06,34.9,0,3.85.13,7.7-.18,11.44h-6.7a103.74,103.74,0,0,1-.24-11.38v-35a25.51,25.51,0,0,1-3.91-.12c-.2-6.93-.2-14.64,0-21.51a25.5,25.5,0,0,1,3.91-.12V87.44C391.38,82.28,391.24,77.1,391.55,72Zm28.32,0h6.75c.32,6.6.18,13.47.18,20.32v20.5c1.15.21,2.86-.13,3.91.18.22,6,.12,12.66.12,19a6.85,6.85,0,0,1-.17,2.55c-1.15.14-2.55,0-3.8.06-.11,20.77-.06,42.36-.06,63.52a17.65,17.65,0,0,1-.24,4.09h-6.69c-.32-5.51-.18-11.16-.18-16.77,0-16.94,0-34,0-50.84-1.28,0-2.72.08-3.91-.06-.2-6.95-.2-14.68,0-21.57,1.19-.13,2.62,0,3.91-.06,0-10.19,0-20.6,0-30.75C419.7,78.77,419.57,75.34,419.88,72Zm27.67,0h6.76c.32,6.11.18,12.34.18,18.55V146.7c1.26.1,2.94-.21,3.91.18.2,6.85.2,14.54,0,21.45a24.54,24.54,0,0,1-3.85.12c-.11,9.49-.06,19.8-.06,29.69a18.61,18.61,0,0,1-.23,4.09h-6.7c-.32-5.41-.18-11.1-.18-16.77v-17c-1.28-.1-3,.22-4-.18-.06-7-.18-14.59.06-21.45a25.49,25.49,0,0,1,3.91-.12V81.22C447.37,78.16,447.24,75.06,447.55,72Zm28.38,0h6.75c.41,9.38.07,19.56.18,29.27.79.15,3.68-.33,4,.3V122.7c-.73.74-2.74.19-4,.35,0,24.48,0,49.58,0,74.36a23.17,23.17,0,0,1-.24,4.8h-6.7c-.31-3.2-.18-6.48-.18-9.72,0-23.14,0-46.38,0-69.44-1.29-.09-3,.2-4-.18-.06-7-.18-14.59.06-21.45.07,0,.1-.07.12-.12h3.79V86.61C475.75,81.68,475.61,76.72,475.93,72Z"
  fill="#fff" />
</svg>
